<?xml version="1.0" encoding="utf-8"?>
<!-- Generator: Adobe Illustrator 16.0.2, SVG Export Plug-In . SVG Version: 6.00 Build 0)  -->
<!DOCTYPE svg PUBLIC "-//W3C//DTD SVG 1.1//EN" "http://www.w3.org/Graphics/SVG/1.1/DTD/svg11.dtd">
<svg version="1.1" id="Layer_1" xmlns="http://www.w3.org/2000/svg" xmlns:xlink="http://www.w3.org/1999/xlink" x="0px" y="0px"
	 width="1000px" height="30px" viewBox="0 0 1000 30" enable-background="new 0 0 1000 30" xml:space="preserve">
<linearGradient id="SVGID_1_" gradientUnits="userSpaceOnUse" x1="499.9995" y1="0" x2="499.9995" y2="30.0005">
	<stop  offset="0" style="stop-color:#52A4DB"/>
	<stop  offset="1" style="stop-color:#2E3192"/>
</linearGradient>
<rect display="none" fill="url(#SVGID_1_)" width="1000" height="30"/>
<path fill="#C3CFD8" d="M0,30C0,30,35,0,100,0s100,30,100,30H0z"/>
<path fill="#DFE5EA" d="M200,30c0,0,35-20,100-20s100,20,100,20H200z"/>
<path fill="#C1DBE8" d="M400,30c0,0,35-15,100-15s100,15,100,15H400z"/>
<path fill="#C3CFD8" d="M600,30c0,0,35-20,100-20s100,20,100,20H600z"/>
<path fill="#D4E8F3" d="M800,30c0,0,35-10,100-10s100,10,100,10H800z"/>
<path fill="#CADFEA" d="M150,30c0,0,21-10,50-10s50,10,50,10H150z"/>
<path display="none" fill="#D0E0EA" d="M350,30c0,0,21-15,50-15s50,15,50,15H350z"/>
<path display="none" fill="#EFEFEF" d="M750,30c0,0,21-13,50-13s50,13,50,13H750z"/>
<path display="none" fill="#DAE1E5" d="M550,30c0,0,21-10,50-10s50,10,50,10H550z"/>
<path display="none" fill="#D0E0EA" d="M0,30h50c0,0-21-20-50-20V30z"/>
<path display="none" fill="#D0E0EA" d="M950,30h50V10C971,10,950,30,950,30z"/>
</svg>
