<?xml version="1.0" encoding="utf-8"?>
<!-- Generator: Adobe Illustrator 16.0.2, SVG Export Plug-In . SVG Version: 6.00 Build 0)  -->
<!DOCTYPE svg PUBLIC "-//W3C//DTD SVG 1.1//EN" "http://www.w3.org/Graphics/SVG/1.1/DTD/svg11.dtd">
<svg version="1.1" id="Layer_1" xmlns="http://www.w3.org/2000/svg" xmlns:xlink="http://www.w3.org/1999/xlink" x="0px" y="0px"
	 width="100px" height="100px" viewBox="0 0 100 100" enable-background="new 0 0 100 100" xml:space="preserve">
<g>
	<path fill="#FAFBF7" d="M82.223,66.367c-0.777-10.191-8.272-19.624-17.715-23.72c2.71-2.572,4.579-5.916,4.909-9.871
		c0.337-1.426,0.369-2.958,0.069-4.482c-1.36-6.975-6.28-13.591-13.582-14.986c-2.87-0.55-5.645-0.479-8.289,0.094
		c-2.088,0.176-4.166,0.71-6.138,1.67c-4.581,2.23-8.656,7.274-9.891,12.583c-0.022,0.085-0.038,0.173-0.058,0.259
		c-0.041,0.192-0.089,0.382-0.123,0.573c-0.5,2.489-0.412,5.054,0.483,7.39c0.657,1.712,1.592,3.304,2.721,4.752
		c0.505,0.961,1.106,1.855,1.777,2.688c-0.517,0.215-1.033,0.441-1.542,0.689c-7.746,3.772-14.638,12.301-16.728,21.283
		c-0.038,0.143-0.063,0.292-0.1,0.438c-0.067,0.323-0.148,0.645-0.206,0.969c-0.848,4.209-0.303,8.419,0.818,12.498
		c4.224,15.358,17.354,20.603,31.009,20.802C77.76,100.406,82.893,75.146,82.223,66.367z"/>
</g>
<g>
	<path fill="#D6EFF3" d="M82.223,66.367c-0.777-10.191-8.272-19.624-17.715-23.72c2.71-2.572,4.579-5.916,4.909-9.871
		c0.337-1.426,0.369-2.958,0.069-4.482c-1.36-6.975-6.28-13.591-13.582-14.986c-1.855-0.355-3.67-0.448-5.438-0.316
		c0.805,0.058,1.616,0.159,2.438,0.316c7.302,1.396,12.222,8.012,13.582,14.986c0.3,1.524,0.268,3.056-0.069,4.482
		c-0.33,3.955-2.199,7.299-4.909,9.871c9.441,4.097,16.938,13.529,17.715,23.72c0.653,8.568-4.231,32.826-30.615,33.601
		c0.344,0.013,0.687,0.022,1.031,0.027C77.76,100.406,82.893,75.146,82.223,66.367z"/>
</g>
<g id="eye_x5F_07_x5F_l">
	<path fill="#555655" d="M43.79,26.684c-0.142-0.099-0.299-0.161-0.464-0.201c-0.004,0-0.006-0.001-0.009-0.001
		c-0.039-0.009-0.078-0.02-0.12-0.027c-0.556-0.137-1.165,0.025-1.618,0.413l0,0c-0.05,0.042-0.104,0.08-0.148,0.129
		c-0.012,0.013-0.019,0.025-0.031,0.039c-0.072,0.072-0.135,0.154-0.189,0.242c0,0.001,0,0.001-0.001,0.002
		c-0.047,0.079-0.096,0.161-0.128,0.254c-0.278,0.653-0.159,1.438,0.383,1.964c0.74,0.717,1.83,0.642,2.568-0.029
		c0.359-0.326,0.587-0.886,0.566-1.369C44.574,27.498,44.276,27.024,43.79,26.684z"/>
</g>
<g id="eye_x5F_07_x5F_r">
	<path fill="#555655" d="M57.93,26.849c-0.141-0.1-0.299-0.162-0.465-0.201c-0.003,0-0.005-0.001-0.009-0.002
		c-0.037-0.009-0.078-0.02-0.118-0.026c-0.556-0.137-1.165,0.024-1.62,0.413l0,0c-0.051,0.043-0.104,0.081-0.147,0.13
		c-0.012,0.011-0.02,0.025-0.031,0.039c-0.071,0.072-0.135,0.154-0.188,0.242c0,0,0,0-0.002,0.002
		c-0.048,0.079-0.097,0.159-0.129,0.252c-0.275,0.655-0.158,1.439,0.385,1.965c0.738,0.716,1.83,0.641,2.566-0.03
		c0.359-0.326,0.588-0.886,0.566-1.369C58.715,27.662,58.417,27.189,57.93,26.849z"/>
</g>
<g>
	<path fill="#EC7423" d="M49.033,32.099c-0.081-0.023-0.225,0.037-0.321,0.06c-3.807,0.889-7.331,2.917-10.904,4.712
		c-0.512,0.258-0.412,1.215,0.267,1.138c4.191-0.484,8.506-1.692,12.315-2.48C50.65,35.476,50.66,32.113,49.033,32.099z"/>
</g>
<g>
	<path fill="#555655" d="M52.996,64.488c0.033,0.816-0.354,1.766-0.961,2.318c-1.25,1.137-3.098,1.264-4.352,0.049
		c-0.918-0.892-1.121-2.221-0.65-3.328c0.055-0.157,0.136-0.295,0.218-0.432c0.001,0,0.001,0,0.002-0.003
		c0.089-0.149,0.196-0.286,0.32-0.409c0.019-0.021,0.031-0.045,0.051-0.065c0.078-0.081,0.167-0.146,0.252-0.22l0,0
		c0.771-0.656,1.803-0.931,2.745-0.697c0.068,0.01,0.137,0.027,0.203,0.044c0.005,0.002,0.008,0.003,0.012,0.003
		c0.282,0.066,0.55,0.171,0.79,0.34C52.451,62.666,52.954,63.466,52.996,64.488z M51.516,71.697c-0.24-0.168-0.511-0.271-0.791-0.34
		c-0.002,0-0.009-0.002-0.013-0.002c-0.067-0.016-0.133-0.035-0.202-0.045c-0.943-0.231-1.974,0.041-2.745,0.697l0,0
		c-0.085,0.074-0.176,0.141-0.252,0.221c-0.02,0.021-0.032,0.043-0.05,0.063c-0.125,0.126-0.23,0.261-0.32,0.411
		c-0.002,0.002-0.003,0.003-0.003,0.003c-0.082,0.137-0.164,0.272-0.217,0.433c-0.472,1.105-0.27,2.437,0.649,3.326
		c1.254,1.217,3.103,1.087,4.351-0.05c0.606-0.552,0.995-1.501,0.961-2.317C52.843,73.076,52.339,72.275,51.516,71.697z"/>
</g>
<path fill="#555655" d="M33.946,20.902c-1.337,2.132-0.38,3.432,2.325,0.315C47.063,8.79,60.048,14.503,65.18,21.156
	c1.766,2.29,2.077,1.544,1.689,0.062C64.59,12.5,44.761,3.658,33.946,20.902z"/>
<path fill="#AC4E25" d="M74.87,7.353c2.274-0.458,4.03-1.593,5.905-2.875c0.756-0.514,1.297-0.821,1.597-0.634l-0.71-0.714
	l-0.008,0.007c-0.262-0.369-0.842-0.062-1.695,0.521c-1.424,0.976-2.782,1.865-4.352,2.434C75.354,6.533,75.096,6.957,74.87,7.353z"
	/>
<path fill="#AC4E25" d="M62.814,17.765l-0.004,0.003l0.033,0.031c0.018,0.021,0.035,0.038,0.061,0.055l0.664,0.634
	c-0.045-0.11-0.023-0.228,0.039-0.348c0.117-0.214,0.379-0.441,0.664-0.659c0.148-0.113,0.305-0.224,0.451-0.324
	c0.117-0.086,0.231-0.166,0.332-0.245c0.109-0.083,0.203-0.158,0.27-0.231c1.183-1.244,1.086-2.861,0.938-4.451
	c-0.183-1.961-0.361-2.989-0.072-4.968c0.012-0.076,0.024-0.148,0.037-0.221c0.012-0.059,0.021-0.117,0.035-0.172
	c0.021-0.086,0.045-0.172,0.065-0.252c0.021-0.065,0.041-0.131,0.065-0.193c0.014-0.042,0.03-0.079,0.049-0.121
	c0.013-0.038,0.029-0.076,0.048-0.114c0.038-0.09,0.081-0.176,0.131-0.255c0.021-0.038,0.045-0.076,0.071-0.11
	c0.029-0.048,0.06-0.093,0.098-0.135c0.021-0.027,0.041-0.052,0.064-0.079c0.06-0.065,0.121-0.128,0.19-0.179
	C67.07,5.407,67.1,5.386,67.13,5.366c0.03-0.024,0.065-0.045,0.101-0.066c0.338-0.189,0.754-0.221,1.24-0.031
	c0.106,0.041,0.217,0.093,0.331,0.155c0.041,0.021,0.079,0.048,0.113,0.08l-0.75-0.754c-0.015-0.014-0.031-0.028-0.045-0.042
	l-0.019-0.017H68.1c-0.037-0.031-0.072-0.059-0.113-0.083C66.507,3.781,65.6,4.867,65.37,6.445
	c-0.286,1.976-0.106,3.006,0.075,4.965c0.147,1.589,0.244,3.206-0.938,4.454C64.041,16.355,62.346,17.168,62.814,17.765z"/>
<path fill="#C95B2C" d="M63.568,18.489c0.039,0.1,0.132,0.197,0.287,0.283c1.365,0.762,3.949-0.686,4.771-1.7
	c1.228-1.517,1.47-3.547,2.89-4.964c2.988-2.986,7.904-2.399,10.512-5.996c0.5-0.689,0.686-1.665,0.511-2.065
	c-0.042-0.093-0.097-0.162-0.166-0.203c-0.3-0.187-0.841,0.121-1.597,0.634C78.9,5.76,77.146,6.895,74.87,7.353
	c0.226-0.396,0.481-0.82,0.737-1.262c0.752-1.296,1.459-2.751,1.068-4.141c-0.1-0.355-0.259-0.617-0.447-0.8
	c-0.024-0.021-0.049-0.041-0.072-0.062c-0.12-0.1-0.252-0.169-0.391-0.214c-0.496-0.162-1.078,0.004-1.523,0.366
	c-0.064,0.055-0.131,0.114-0.192,0.176c-0.038,0.045-0.079,0.086-0.116,0.134c-0.06,0.076-0.115,0.155-0.162,0.238
	c-0.049,0.083-0.09,0.168-0.125,0.258c-0.609,1.586-0.68,5.851-4.123,8.636c0.019-0.49,0.045-1.051,0.056-1.627
	c0.03-1.472-0.048-3.01-0.642-3.534h-0.004l-0.018-0.017c-0.034-0.031-0.072-0.059-0.113-0.08c-0.113-0.062-0.225-0.114-0.33-0.155
	C67.986,5.079,67.568,5.11,67.23,5.3c-0.033,0.021-0.068,0.042-0.1,0.066c-0.031,0.021-0.059,0.041-0.086,0.065
	c-0.068,0.051-0.132,0.114-0.189,0.179c-0.025,0.03-0.045,0.054-0.066,0.081c-0.038,0.042-0.068,0.086-0.098,0.135
	c-0.026,0.034-0.051,0.072-0.071,0.11c-0.05,0.08-0.093,0.166-0.131,0.255c-0.019,0.038-0.035,0.076-0.048,0.114
	c-0.019,0.042-0.035,0.079-0.049,0.121c-0.024,0.062-0.045,0.127-0.065,0.193c-0.021,0.08-0.045,0.166-0.065,0.252
	c-0.014,0.055-0.023,0.114-0.035,0.172c-0.013,0.072-0.025,0.145-0.037,0.221c-0.289,1.979-0.109,3.006,0.072,4.968
	c0.148,1.589,0.245,3.207-0.938,4.451c-0.065,0.073-0.159,0.148-0.27,0.231c-0.101,0.08-0.215,0.159-0.332,0.245
	c-0.146,0.1-0.303,0.21-0.451,0.324c-0.285,0.217-0.547,0.445-0.664,0.659C63.545,18.261,63.523,18.378,63.568,18.489z"/>
<path fill="#AC4E25" d="M69.523,10.684c3.442-2.786,3.513-7.05,4.123-8.636c0.033-0.09,0.074-0.176,0.123-0.258
	c0.049-0.083,0.104-0.162,0.162-0.238c0.039-0.048,0.08-0.089,0.117-0.134c0.063-0.062,0.128-0.121,0.192-0.176
	c0.444-0.362,1.028-0.527,1.524-0.366c0.137,0.045,0.27,0.114,0.389,0.214c0.025,0.021,0.049,0.042,0.072,0.062l-0.686-0.658
	c-0.087-0.114-0.188-0.21-0.293-0.283L75.23,0.197h-0.004c-0.808-0.524-2.023,0.065-2.399,1.034
	c-0.558,1.438-0.662,5.082-3.251,7.826C69.566,9.632,69.541,10.194,69.523,10.684z"/>
<path fill="#AC4E25" d="M26.181,7.353c-2.275-0.458-4.03-1.593-5.906-2.875c-0.755-0.514-1.296-0.821-1.596-0.634l0.71-0.714
	l0.007,0.007c0.262-0.369,0.841-0.062,1.696,0.521c1.424,0.976,2.782,1.865,4.351,2.434C25.698,6.533,25.957,6.957,26.181,7.353z"/>
<path fill="#AC4E25" d="M38.237,17.765l0.003,0.003l-0.034,0.031c-0.018,0.021-0.035,0.038-0.059,0.055l-0.665,0.634
	c0.045-0.11,0.024-0.228-0.038-0.348c-0.117-0.214-0.379-0.441-0.665-0.659c-0.148-0.113-0.304-0.224-0.452-0.324
	c-0.117-0.086-0.231-0.166-0.331-0.245c-0.11-0.083-0.204-0.158-0.269-0.231c-1.183-1.244-1.086-2.861-0.938-4.451
	c0.183-1.961,0.362-2.989,0.072-4.968c-0.011-0.076-0.024-0.148-0.038-0.221c-0.01-0.059-0.021-0.117-0.034-0.172
	c-0.021-0.086-0.045-0.172-0.066-0.252c-0.021-0.065-0.041-0.131-0.065-0.193c-0.014-0.042-0.031-0.079-0.048-0.121
	c-0.014-0.038-0.031-0.076-0.048-0.114c-0.038-0.09-0.083-0.176-0.131-0.255c-0.021-0.038-0.044-0.076-0.072-0.11
	c-0.028-0.048-0.059-0.093-0.097-0.135c-0.021-0.027-0.041-0.052-0.065-0.079c-0.059-0.065-0.121-0.128-0.189-0.179
	c-0.028-0.024-0.055-0.045-0.086-0.065c-0.031-0.024-0.065-0.045-0.1-0.066c-0.338-0.189-0.755-0.221-1.241-0.031
	c-0.107,0.041-0.217,0.093-0.331,0.155c-0.042,0.021-0.08,0.048-0.114,0.08l0.751-0.755c0.014-0.014,0.031-0.028,0.045-0.042
	l0.017-0.017h0.003c0.038-0.031,0.072-0.059,0.114-0.083c1.479-0.827,2.386,0.259,2.617,1.837c0.286,1.976,0.107,3.006-0.076,4.965
	c-0.148,1.589-0.245,3.206,0.938,4.454C37.01,16.355,38.706,17.168,38.237,17.765z"/>
<path fill="#C95B2C" d="M37.482,18.489c-0.038,0.1-0.131,0.197-0.286,0.283c-1.365,0.762-3.951-0.686-4.771-1.7
	c-1.228-1.517-1.469-3.547-2.889-4.964c-2.989-2.986-7.905-2.399-10.512-5.996c-0.5-0.689-0.686-1.665-0.51-2.065
	c0.042-0.093,0.097-0.162,0.166-0.203c0.3-0.187,0.841,0.121,1.596,0.634c1.875,1.282,3.63,2.417,5.906,2.875
	c-0.224-0.396-0.482-0.82-0.738-1.262c-0.751-1.296-1.458-2.751-1.069-4.141c0.1-0.355,0.259-0.617,0.448-0.8
	c0.024-0.021,0.048-0.041,0.072-0.062c0.121-0.1,0.252-0.169,0.39-0.214c0.497-0.162,1.079,0.004,1.524,0.366
	c0.065,0.055,0.131,0.114,0.193,0.176c0.038,0.045,0.079,0.086,0.117,0.134c0.059,0.076,0.114,0.155,0.162,0.238
	c0.048,0.083,0.09,0.168,0.125,0.258c0.61,1.586,0.679,5.851,4.123,8.636c-0.017-0.49-0.044-1.051-0.055-1.627
	c-0.031-1.472,0.048-3.01,0.641-3.534h0.004l0.017-0.017c0.034-0.031,0.072-0.059,0.114-0.08c0.114-0.062,0.224-0.114,0.331-0.155
	c0.486-0.19,0.903-0.159,1.241,0.031c0.034,0.021,0.069,0.042,0.1,0.066c0.031,0.021,0.059,0.041,0.086,0.065
	c0.069,0.051,0.131,0.114,0.189,0.179c0.024,0.027,0.045,0.052,0.065,0.079c0.038,0.042,0.069,0.086,0.097,0.135
	c0.028,0.034,0.052,0.072,0.072,0.11c0.048,0.08,0.093,0.166,0.131,0.255c0.018,0.038,0.035,0.076,0.048,0.114
	c0.018,0.042,0.035,0.079,0.048,0.121c0.024,0.062,0.045,0.127,0.065,0.193c0.021,0.08,0.045,0.166,0.066,0.252
	c0.014,0.055,0.024,0.114,0.034,0.172c0.014,0.072,0.027,0.145,0.038,0.221c0.29,1.979,0.11,3.006-0.072,4.968
	c-0.148,1.589-0.245,3.207,0.938,4.451c0.065,0.073,0.159,0.148,0.269,0.231c0.1,0.08,0.214,0.159,0.331,0.245
	c0.148,0.1,0.303,0.21,0.452,0.324c0.286,0.217,0.548,0.445,0.665,0.659C37.506,18.261,37.527,18.378,37.482,18.489z"/>
<path fill="#AC4E25" d="M31.528,10.684c-3.444-2.786-3.513-7.05-4.123-8.636c-0.035-0.09-0.076-0.176-0.125-0.258
	c-0.048-0.083-0.103-0.162-0.162-0.238c-0.038-0.048-0.08-0.089-0.117-0.134c-0.062-0.062-0.128-0.121-0.193-0.176
	c-0.445-0.362-1.027-0.527-1.524-0.366c-0.138,0.045-0.269,0.114-0.39,0.214c-0.024,0.021-0.048,0.042-0.072,0.062l0.686-0.658
	c0.086-0.114,0.187-0.21,0.293-0.283l0.018-0.014h0.003c0.807-0.524,2.023,0.065,2.399,1.034c0.559,1.438,0.662,5.082,3.251,7.826
	C31.483,9.632,31.511,10.194,31.528,10.684z"/>
<g>
	<path fill="#B32E36" d="M75.289,62.277c-0.359-3.344-1.313-9.729-4.044-11.996c0,0-8.904,3.123-8.573,3.343
		c0.064,0.175,0.221,0.319,0.419,0.296c3.038,2.411,3.55,7.127,3.746,10.784c0.226,4.183-0.247,8.347-0.319,12.524
		c-0.004,0.215,0.187,0.433,0.41,0.42c3.418-0.201,8.637-1.51,8.719-4.156C75.759,69.891,75.716,66.184,75.289,62.277z"/>
</g>
<g>
	<path fill="#DC3C45" d="M66.762,40.951c-2.994,1.246-3.371,2.625-15.854,3.384c-12.144-1.052-12.66-1.909-15.854-3.384
		c-1.834-0.847-8.292,7.949-7.721,8.339c4.867,3.337,13.943,6.149,23.566,6.42v0.001c0.004,0,0.006,0,0.008,0s0.004,0,0.006,0V55.71
		c9.625-0.271,18.701-3.083,23.568-6.42C75.052,48.899,68.625,40.175,66.762,40.951z"/>
</g>
<g>
	<path fill="#DD0707" d="M19.018,42.223l-1.05,3.18h-1.35l3.435-10.109h1.575l3.45,10.109h-1.395l-1.08-3.18H19.018z M22.333,41.202
		l-0.99-2.909c-0.225-0.66-0.375-1.261-0.525-1.846h-0.03c-0.15,0.601-0.315,1.216-0.51,1.83l-0.99,2.925H22.333z"/>
	<path fill="#DD0707" d="M27.988,45.402l-3.3-10.109h1.41l1.575,4.979c0.435,1.365,0.81,2.595,1.08,3.78h0.03
		c0.285-1.17,0.705-2.445,1.155-3.766l1.71-4.994h1.395l-3.615,10.109H27.988z"/>
	<path fill="#DD0707" d="M34.918,42.223l-1.05,3.18h-1.35l3.435-10.109h1.575l3.45,10.109h-1.395l-1.08-3.18H34.918z M38.233,41.202
		l-0.99-2.909c-0.225-0.66-0.375-1.261-0.525-1.846h-0.03c-0.15,0.601-0.315,1.216-0.51,1.83l-0.99,2.925H38.233z"/>
	<path fill="#DD0707" d="M43.768,35.293v10.109h-1.305V35.293H43.768z"/>
	<path fill="#DD0707" d="M46.048,35.293h1.305v9.015h4.319v1.095h-5.624V35.293z"/>
	<path fill="#DD0707" d="M54.763,42.223l-1.05,3.18h-1.35l3.435-10.109h1.575l3.449,10.109h-1.395l-1.08-3.18H54.763z
		 M58.078,41.202l-0.99-2.909c-0.225-0.66-0.375-1.261-0.525-1.846h-0.029c-0.15,0.601-0.315,1.216-0.511,1.83l-0.989,2.925H58.078z
		"/>
	<path fill="#DD0707" d="M62.308,35.428c0.569-0.12,1.47-0.21,2.385-0.21c1.305,0,2.146,0.225,2.774,0.735
		c0.525,0.39,0.84,0.989,0.84,1.784c0,0.976-0.645,1.83-1.709,2.221v0.029c0.959,0.24,2.084,1.035,2.084,2.535
		c0,0.87-0.344,1.53-0.854,2.025c-0.705,0.645-1.845,0.944-3.495,0.944c-0.899,0-1.59-0.06-2.024-0.12V35.428z M63.612,39.567h1.185
		c1.381,0,2.19-0.72,2.19-1.694c0-1.186-0.899-1.65-2.22-1.65c-0.6,0-0.945,0.045-1.155,0.09V39.567z M63.612,44.412
		c0.255,0.045,0.63,0.061,1.095,0.061c1.35,0,2.596-0.495,2.596-1.965c0-1.38-1.186-1.95-2.61-1.95h-1.08V44.412z"/>
	<path fill="#DD0707" d="M70.438,35.293h1.305v9.015h4.32v1.095h-5.625V35.293z"/>
	<path fill="#DD0707" d="M82.752,40.662h-3.93v3.646h4.38v1.095h-5.685V35.293h5.459v1.095h-4.154v3.195h3.93V40.662z"/>
	<path fill="#DD0707" d="M13.708,53.293v10.109h-1.305V53.293H13.708z"/>
	<path fill="#DD0707" d="M15.988,63.402V53.293h1.425l3.24,5.114c0.75,1.186,1.335,2.25,1.815,3.285l0.03-0.015
		c-0.12-1.351-0.15-2.58-0.15-4.155v-4.229h1.23v10.109h-1.32l-3.21-5.13c-0.705-1.125-1.38-2.28-1.89-3.375l-0.045,0.016
		c0.075,1.274,0.105,2.489,0.105,4.169v4.32H15.988z"/>
	<path fill="#DD0707" d="M29.038,53.413c0.63-0.105,1.455-0.195,2.505-0.195c1.29,0,2.235,0.3,2.835,0.84
		c0.555,0.48,0.885,1.215,0.885,2.115c0,0.915-0.27,1.635-0.78,2.16c-0.69,0.734-1.815,1.109-3.09,1.109
		c-0.39,0-0.75-0.015-1.05-0.09v4.05h-1.305V53.413z M30.343,58.287c0.285,0.075,0.645,0.105,1.08,0.105
		c1.575,0,2.535-0.765,2.535-2.16c0-1.335-0.945-1.979-2.385-1.979c-0.57,0-1.005,0.045-1.23,0.104V58.287z"/>
	<path fill="#DD0707" d="M37.018,53.428c0.66-0.135,1.605-0.21,2.505-0.21c1.395,0,2.295,0.255,2.925,0.825
		c0.51,0.45,0.795,1.14,0.795,1.92c0,1.335-0.84,2.22-1.905,2.58v0.045c0.78,0.27,1.245,0.989,1.485,2.04
		c0.33,1.409,0.57,2.385,0.78,2.774h-1.35c-0.165-0.285-0.39-1.155-0.675-2.415c-0.3-1.395-0.84-1.92-2.025-1.965h-1.23v4.38h-1.305
		V53.428z M38.323,58.032h1.335c1.395,0,2.28-0.765,2.28-1.92c0-1.305-0.945-1.875-2.325-1.89c-0.63,0-1.08,0.061-1.29,0.12V58.032z
		"/>
	<path fill="#DD0707" d="M50.322,58.662h-3.93v3.646h4.38v1.095h-5.685V53.293h5.459v1.095h-4.154v3.195h3.93V58.662z"/>
	<path fill="#DD0707" d="M60.987,58.963c-0.075-1.41-0.165-3.105-0.149-4.365h-0.045c-0.346,1.185-0.766,2.445-1.275,3.84
		l-1.785,4.905h-0.99l-1.635-4.815c-0.48-1.425-0.885-2.729-1.17-3.93h-0.029c-0.031,1.26-0.105,2.955-0.195,4.47l-0.271,4.335
		h-1.245l0.705-10.109h1.665l1.726,4.89c0.42,1.245,0.765,2.354,1.02,3.405h0.045c0.255-1.021,0.615-2.131,1.064-3.405l1.801-4.89
		h1.664l0.631,10.109h-1.275L60.987,58.963z"/>
	<path fill="#DD0707" d="M65.832,53.293v10.109h-1.305V53.293H65.832z"/>
	<path fill="#DD0707" d="M69.417,53.293v5.984c0,2.265,1.005,3.225,2.354,3.225c1.5,0,2.461-0.989,2.461-3.225v-5.984h1.319v5.895
		c0,3.104-1.635,4.38-3.825,4.38c-2.069,0-3.629-1.185-3.629-4.32v-5.954H69.417z"/>
	<path fill="#DD0707" d="M86.337,58.963c-0.075-1.41-0.165-3.105-0.149-4.365h-0.045c-0.346,1.185-0.766,2.445-1.275,3.84
		l-1.785,4.905h-0.99l-1.635-4.815c-0.48-1.425-0.885-2.729-1.17-3.93h-0.029c-0.031,1.26-0.105,2.955-0.195,4.47l-0.271,4.335
		h-1.245l0.705-10.109h1.665l1.726,4.89c0.42,1.245,0.765,2.354,1.02,3.405h0.045c0.255-1.021,0.615-2.131,1.064-3.405l1.801-4.89
		h1.664l0.631,10.109h-1.275L86.337,58.963z"/>
</g>
</svg>
