<?xml version="1.0" encoding="utf-8"?>
<!-- Generator: Adobe Illustrator 16.0.2, SVG Export Plug-In . SVG Version: 6.00 Build 0)  -->
<!DOCTYPE svg PUBLIC "-//W3C//DTD SVG 1.1//EN" "http://www.w3.org/Graphics/SVG/1.1/DTD/svg11.dtd">
<svg version="1.1" id="Layer_1" xmlns="http://www.w3.org/2000/svg" xmlns:xlink="http://www.w3.org/1999/xlink" x="0px" y="0px"
	 width="100px" height="100px" viewBox="0 0 100 100" enable-background="new 0 0 100 100" xml:space="preserve">
<path fill="#FFFFFF" d="M71.693,26.193C71.693,13.935,61.744,4,49.483,4c-12.267,0-22.208,9.935-22.208,22.193
	c0,12.258,9.942,22.193,22.208,22.193C61.744,48.387,71.693,38.452,71.693,26.193z"/>
<path fill="#D6EFF4" d="M49.483,4c-1.322,0-2.616,0.122-3.874,0.345c10.415,1.832,21.434,10.914,21.434,21.849
	c0,10.938-11.02,20.019-21.434,21.851c1.258,0.221,2.552,0.343,3.874,0.343c12.261,0,22.21-9.935,22.21-22.193
	C71.693,13.937,61.744,4,49.483,4z"/>
<ellipse fill="#FFFFFF" cx="49.484" cy="66.968" rx="33.056" ry="33.033"/>
<path fill="#D6EFF4" d="M70.128,41.177c4.528,5.653,7.246,12.821,7.246,20.628c0,18.243-14.799,33.033-33.055,33.033
	c-7.812,0-14.986-2.714-20.643-7.242C29.734,95.154,39.04,100,49.483,100C67.74,100,82.54,85.21,82.54,66.968
	C82.54,56.532,77.689,47.23,70.128,41.177z"/>
<g>
	<path fill="#F15822" d="M75.307,41.78c0,1.369-1.154,2.478-2.582,2.478H26.243c-1.427,0-2.583-1.109-2.583-2.478v-7.432
		c0-1.369,1.156-2.478,2.583-2.478h46.481c1.428,0,2.582,1.109,2.582,2.478V41.78z"/>
	<path id="scarf_x5F_part" fill="#F15822" d="M56.197,30.839v28.903v7.226v4.13c0,1.142,0.924,2.065,2.066,2.065
		s2.063-0.925,2.063-2.065v-4.13v-1.032c0-1.14,0.926-2.063,2.067-2.063c1.143,0,2.063,0.925,2.063,2.063v1.032v10.323
		c0,1.139,0.926,2.063,2.067,2.063c1.141,0,2.063-0.924,2.063-2.063V66.968v-1.032V30.839H56.197z"/>
	<g>
		<rect x="27.792" y="31.871" fill="#F7901E" width="2.066" height="12.387"/>
		<rect x="34.506" y="31.871" fill="#F7901E" width="2.066" height="12.387"/>
		<rect x="41.22" y="31.871" fill="#F7901E" width="2.065" height="12.387"/>
		<rect x="48.451" y="31.871" fill="#F7901E" width="2.064" height="12.387"/>
		<rect x="68.592" y="31.871" fill="#F7901E" width="2.068" height="12.387"/>
	</g>
</g>
<circle id="eye_x5F_l" fill="#303030" cx="39.154" cy="19.742" r="2.066"/>
<circle id="eye_x5F_r" fill="#303030" cx="59.814" cy="19.742" r="2.066"/>
<path fill="none" stroke="#303030" stroke-width="3" stroke-linecap="round" stroke-linejoin="round" stroke-miterlimit="10" d="
	M45.351,22.581c0,0,0.259,3.098,4.132,3.098c3.615,0,4.134-3.098,4.134-3.098"/>
<line id="hand_x5F_l" fill="none" stroke="#411A0C" stroke-width="6" stroke-linecap="round" stroke-linejoin="round" stroke-miterlimit="10" x1="75.307" y1="50.968" x2="97" y2="27.742"/>
<line id="hand_x5F_r" fill="none" stroke="#411A0C" stroke-width="6" stroke-linecap="round" stroke-linejoin="round" stroke-miterlimit="10" x1="24.691" y1="50.968" x2="3" y2="27.742"/>
<g>
	<path fill="#DD0707" d="M19.018,42.223l-1.05,3.18h-1.35l3.435-10.109h1.575l3.45,10.109h-1.395l-1.08-3.18H19.018z M22.333,41.202
		l-0.99-2.909c-0.225-0.66-0.375-1.261-0.525-1.846h-0.03c-0.15,0.601-0.315,1.216-0.51,1.83l-0.99,2.925H22.333z"/>
	<path fill="#DD0707" d="M27.988,45.402l-3.3-10.109h1.41l1.575,4.979c0.435,1.365,0.81,2.595,1.08,3.78h0.03
		c0.285-1.17,0.705-2.445,1.155-3.766l1.71-4.994h1.395l-3.615,10.109H27.988z"/>
	<path fill="#DD0707" d="M34.918,42.223l-1.05,3.18h-1.35l3.435-10.109h1.575l3.45,10.109h-1.395l-1.08-3.18H34.918z M38.233,41.202
		l-0.99-2.909c-0.225-0.66-0.375-1.261-0.525-1.846h-0.03c-0.15,0.601-0.315,1.216-0.51,1.83l-0.99,2.925H38.233z"/>
	<path fill="#DD0707" d="M43.768,35.293v10.109h-1.305V35.293H43.768z"/>
	<path fill="#DD0707" d="M46.048,35.293h1.305v9.015h4.319v1.095h-5.624V35.293z"/>
	<path fill="#DD0707" d="M54.763,42.223l-1.05,3.18h-1.35l3.435-10.109h1.575l3.449,10.109h-1.395l-1.08-3.18H54.763z
		 M58.078,41.202l-0.99-2.909c-0.225-0.66-0.375-1.261-0.525-1.846h-0.029c-0.15,0.601-0.315,1.216-0.511,1.83l-0.989,2.925H58.078z
		"/>
	<path fill="#DD0707" d="M62.308,35.428c0.569-0.12,1.47-0.21,2.385-0.21c1.305,0,2.146,0.225,2.774,0.735
		c0.525,0.39,0.84,0.989,0.84,1.784c0,0.976-0.645,1.83-1.709,2.221v0.029c0.959,0.24,2.084,1.035,2.084,2.535
		c0,0.87-0.344,1.53-0.854,2.025c-0.705,0.645-1.845,0.944-3.495,0.944c-0.899,0-1.59-0.06-2.024-0.12V35.428z M63.612,39.567h1.185
		c1.381,0,2.19-0.72,2.19-1.694c0-1.186-0.899-1.65-2.22-1.65c-0.6,0-0.945,0.045-1.155,0.09V39.567z M63.612,44.412
		c0.255,0.045,0.63,0.061,1.095,0.061c1.35,0,2.596-0.495,2.596-1.965c0-1.38-1.186-1.95-2.61-1.95h-1.08V44.412z"/>
	<path fill="#DD0707" d="M70.438,35.293h1.305v9.015h4.32v1.095h-5.625V35.293z"/>
	<path fill="#DD0707" d="M82.752,40.662h-3.93v3.646h4.38v1.095h-5.685V35.293h5.459v1.095h-4.154v3.195h3.93V40.662z"/>
	<path fill="#DD0707" d="M13.708,53.293v10.109h-1.305V53.293H13.708z"/>
	<path fill="#DD0707" d="M15.988,63.402V53.293h1.425l3.24,5.114c0.75,1.186,1.335,2.25,1.815,3.285l0.03-0.015
		c-0.12-1.351-0.15-2.58-0.15-4.155v-4.229h1.23v10.109h-1.32l-3.21-5.13c-0.705-1.125-1.38-2.28-1.89-3.375l-0.045,0.016
		c0.075,1.274,0.105,2.489,0.105,4.169v4.32H15.988z"/>
	<path fill="#DD0707" d="M29.038,53.413c0.63-0.105,1.455-0.195,2.505-0.195c1.29,0,2.235,0.3,2.835,0.84
		c0.555,0.48,0.885,1.215,0.885,2.115c0,0.915-0.27,1.635-0.78,2.16c-0.69,0.734-1.815,1.109-3.09,1.109
		c-0.39,0-0.75-0.015-1.05-0.09v4.05h-1.305V53.413z M30.343,58.287c0.285,0.075,0.645,0.105,1.08,0.105
		c1.575,0,2.535-0.765,2.535-2.16c0-1.335-0.945-1.979-2.385-1.979c-0.57,0-1.005,0.045-1.23,0.104V58.287z"/>
	<path fill="#DD0707" d="M37.018,53.428c0.66-0.135,1.605-0.21,2.505-0.21c1.395,0,2.295,0.255,2.925,0.825
		c0.51,0.45,0.795,1.14,0.795,1.92c0,1.335-0.84,2.22-1.905,2.58v0.045c0.78,0.27,1.245,0.989,1.485,2.04
		c0.33,1.409,0.57,2.385,0.78,2.774h-1.35c-0.165-0.285-0.39-1.155-0.675-2.415c-0.3-1.395-0.84-1.92-2.025-1.965h-1.23v4.38h-1.305
		V53.428z M38.323,58.032h1.335c1.395,0,2.28-0.765,2.28-1.92c0-1.305-0.945-1.875-2.325-1.89c-0.63,0-1.08,0.061-1.29,0.12V58.032z
		"/>
	<path fill="#DD0707" d="M50.322,58.662h-3.93v3.646h4.38v1.095h-5.685V53.293h5.459v1.095h-4.154v3.195h3.93V58.662z"/>
	<path fill="#DD0707" d="M60.987,58.963c-0.075-1.41-0.165-3.105-0.149-4.365h-0.045c-0.346,1.185-0.766,2.445-1.275,3.84
		l-1.785,4.905h-0.99l-1.635-4.815c-0.48-1.425-0.885-2.729-1.17-3.93h-0.029c-0.031,1.26-0.105,2.955-0.195,4.47l-0.271,4.335
		h-1.245l0.705-10.109h1.665l1.726,4.89c0.42,1.245,0.765,2.354,1.02,3.405h0.045c0.255-1.021,0.615-2.131,1.064-3.405l1.801-4.89
		h1.664l0.631,10.109h-1.275L60.987,58.963z"/>
	<path fill="#DD0707" d="M65.832,53.293v10.109h-1.305V53.293H65.832z"/>
	<path fill="#DD0707" d="M69.417,53.293v5.984c0,2.265,1.005,3.225,2.354,3.225c1.5,0,2.461-0.989,2.461-3.225v-5.984h1.319v5.895
		c0,3.104-1.635,4.38-3.825,4.38c-2.069,0-3.629-1.185-3.629-4.32v-5.954H69.417z"/>
	<path fill="#DD0707" d="M86.337,58.963c-0.075-1.41-0.165-3.105-0.149-4.365h-0.045c-0.346,1.185-0.766,2.445-1.275,3.84
		l-1.785,4.905h-0.99l-1.635-4.815c-0.48-1.425-0.885-2.729-1.17-3.93h-0.029c-0.031,1.26-0.105,2.955-0.195,4.47l-0.271,4.335
		h-1.245l0.705-10.109h1.665l1.726,4.89c0.42,1.245,0.765,2.354,1.02,3.405h0.045c0.255-1.021,0.615-2.131,1.064-3.405l1.801-4.89
		h1.664l0.631,10.109h-1.275L86.337,58.963z"/>
</g>
</svg>
