<?xml version="1.0" encoding="utf-8"?>
<!-- Generator: Adobe Illustrator 16.0.2, SVG Export Plug-In . SVG Version: 6.00 Build 0)  -->
<!DOCTYPE svg PUBLIC "-//W3C//DTD SVG 1.1//EN" "http://www.w3.org/Graphics/SVG/1.1/DTD/svg11.dtd">
<svg version="1.1" id="Layer_1" xmlns="http://www.w3.org/2000/svg" xmlns:xlink="http://www.w3.org/1999/xlink" x="0px" y="0px"
	 width="100px" height="100px" viewBox="0 0 100 100" enable-background="new 0 0 100 100" xml:space="preserve">
<circle fill="#F4F4F4" cx="52.977" cy="74.303" r="24.697"/>
<path fill="#D6EFF3" d="M52.977,49.606c-0.336,0-0.668,0.012-1,0.025c13.176,0.525,23.696,11.368,23.696,24.671
	c0,13.306-10.521,24.146-23.696,24.673c0.332,0.014,0.664,0.024,1,0.024c13.64,0,24.696-11.058,24.696-24.697
	C77.673,60.664,66.615,49.606,52.977,49.606z"/>
<circle fill="#F4F4F4" cx="52.977" cy="38.063" r="16.912"/>
<path fill="#D6EFF3" d="M52.977,21.151c-0.338,0-0.668,0.031-1,0.05c8.871,0.521,15.912,7.859,15.912,16.861
	c0,9.003-7.041,16.342-15.912,16.861c0.332,0.021,0.662,0.052,1,0.052c9.34,0,16.912-7.573,16.912-16.913
	C69.889,28.723,62.314,21.151,52.977,21.151z"/>
<g>
	<path fill="#C92127" d="M23.287,4.261c12.776,12.516,38.605,6.033,44.337,25.034c-12.351-4.383-20.551-2.402-29.297,0.312
		C36.216,19.05,22.383,16.023,23.287,4.261"/>
</g>
<circle fill="#A21D21" stroke="#A21D21" stroke-width="0.3177" stroke-miterlimit="10" cx="23.287" cy="4.261" r="3.261"/>
<g id="nose">
	<path fill="#F15822" d="M54.652,39.24c0.668-1.393,12.636,5.591,12.063,6.032C62.494,45.574,51.205,46.908,54.652,39.24"/>
</g>
<g id="eye_x5F_10_x5F_l">
	<g>
		<path fill="#555655" d="M49.829,38.01c3.073,0,3.073-4.766,0-4.766S46.756,38.01,49.829,38.01L49.829,38.01z"/>
	</g>
</g>
<g id="eye_x5F_10_x5F_r">
	<g>
		<path fill="#555655" d="M55.383,35.805c0.102,0.101,0.201,0.201,0.303,0.302c0.916,0.918,2.451,0.917,3.369,0
			c0.918-0.919,0.918-2.451,0-3.37c-0.102-0.101-0.201-0.201-0.303-0.302c-0.917-0.918-2.452-0.917-3.369,0
			C54.464,33.354,54.465,34.886,55.383,35.805L55.383,35.805z"/>
	</g>
</g>
<g>
	<g>
		<path fill="#555655" d="M53.639,64.02c0.102,0.101,0.201,0.201,0.303,0.301c0.918,0.919,2.451,0.919,3.369,0
			c0.918-0.918,0.918-2.45,0-3.368c-0.102-0.101-0.201-0.201-0.303-0.302c-0.918-0.918-2.451-0.918-3.369,0
			S52.721,63.102,53.639,64.02L53.639,64.02z"/>
	</g>
</g>
<g>
	<g>
		<path fill="#555655" d="M55.383,74.053c0.102,0.102,0.201,0.201,0.303,0.303c0.918,0.918,2.451,0.918,3.369,0s0.918-2.451,0-3.369
			c-0.102-0.102-0.201-0.201-0.303-0.303c-0.918-0.918-2.451-0.918-3.369,0S54.465,73.135,55.383,74.053L55.383,74.053z"/>
	</g>
</g>
<g>
	<g>
		<path fill="#555655" d="M52.323,83.344c0.101,0.102,0.2,0.201,0.302,0.303c0.918,0.918,2.451,0.918,3.369,0s0.918-2.451,0-3.369
			c-0.102-0.102-0.201-0.201-0.303-0.303c-0.918-0.918-2.45-0.918-3.368,0C51.404,80.893,51.404,82.426,52.323,83.344L52.323,83.344
			z"/>
	</g>
</g>
<g>
	<g>
		<path fill="#555655" d="M48.351,46.741c0,0.503,0,1.006,0,1.509c0,1.299,1.084,2.383,2.383,2.383c1.299,0,2.383-1.084,2.383-2.383
			c0-0.503,0-1.006,0-1.509c0-1.299-1.084-2.383-2.383-2.383C49.435,44.358,48.351,45.442,48.351,46.741L48.351,46.741z"/>
	</g>
</g>
<g>
	<g>
		<path fill="#583A15" d="M76.379,28.114c-0.195,1.106-0.754,2.101-0.982,3.197c-0.209,1,1.322,1.425,1.531,0.422
			c0.229-1.096,0.786-2.09,0.982-3.197C78.088,27.535,76.559,27.106,76.379,28.114L76.379,28.114z"/>
		<path fill="#583A15" d="M72.871,59.514c2.521-1.922,4.718-4.343,6.873-6.656c2.285-2.456,1.578-4.47,1.531-7.641
			c-0.033-2.351,0.857-7.388-0.187-9.467c-1.844-3.671-5.329-3.753-5.772-8.573c-0.094-1.011-1.684-1.021-1.588,0
			c0.108,1.191-0.028,3.24,0.806,4.251c1.965,2.385,5.241,3.368,5.015,6.981c-0.219,3.474-0.006,7.176,0.358,10.635
			c0.286,2.724-5.912,7.628-7.837,9.097C71.268,58.754,72.057,60.134,72.871,59.514L72.871,59.514z"/>
		<path fill="#583A15" d="M83.512,27.596c-0.794,1.315-1.634,2.514-2.082,3.998c-0.578,1.913-0.863,3.817-1.606,5.703
			c-0.376,0.954,1.159,1.364,1.53,0.422c0.655-1.661,1.195-3.316,1.479-5.084c0.259-1.617,1.229-2.873,2.052-4.237
			C85.414,27.519,84.04,26.721,83.512,27.596L83.512,27.596z"/>
	</g>
</g>
<g>
	<g>
		<path fill="#583A15" d="M35.634,64.343C29.053,58.297,22.585,51.6,22.01,42.192c-0.53,0-1.059,0-1.589,0
			c0.15,1.571,0.516,3.092,0.409,4.673c0.335-0.255,0.67-0.511,1.005-0.766c-2.5-0.908-4.763-1.569-5.266-4.692
			c-0.163-1.009-1.693-0.58-1.532,0.422c0.673,4.17,2.63,4.442,6.376,5.803c0.516,0.187,0.973-0.289,1.005-0.766
			c0.109-1.633-0.254-3.042-0.409-4.673c-0.096-1.003-1.652-1.033-1.589,0c0.604,9.864,7.149,16.898,14.089,23.273
			C35.263,66.157,36.39,65.037,35.634,64.343L35.634,64.343z"/>
		<path fill="#583A15" d="M26.68,45.519c0.498,1.688,1.631,3.099,3.542,2.523c1.309-0.395,2.212-1.467,3.198-2.337
			c0.77-0.679-0.358-1.798-1.123-1.123c-0.57,0.502-1.068,1.061-1.697,1.498c-0.372,0.258-0.798,0.5-1.258,0.524
			c-0.708,0.038-0.981-1.004-1.129-1.506C27.923,44.117,26.39,44.534,26.68,45.519L26.68,45.519z"/>
		<path fill="#583A15" d="M26.286,54.971c1.986-1.931,2.79-4.824,3.813-7.32c0.389-0.948-1.149-1.356-1.532-0.422
			c-0.917,2.236-1.625,4.889-3.404,6.619C24.427,54.563,25.552,55.686,26.286,54.971L26.286,54.971z"/>
	</g>
</g>
<g>
	<path fill="#DD0707" d="M19.018,42.223l-1.05,3.18h-1.35l3.435-10.109h1.575l3.45,10.109h-1.395l-1.08-3.18H19.018z M22.333,41.202
		l-0.99-2.909c-0.225-0.66-0.375-1.261-0.525-1.846h-0.03c-0.15,0.601-0.315,1.216-0.51,1.83l-0.99,2.925H22.333z"/>
	<path fill="#DD0707" d="M27.988,45.402l-3.3-10.109h1.41l1.575,4.979c0.435,1.365,0.81,2.595,1.08,3.78h0.03
		c0.285-1.17,0.705-2.445,1.155-3.766l1.71-4.994h1.395l-3.615,10.109H27.988z"/>
	<path fill="#DD0707" d="M34.918,42.223l-1.05,3.18h-1.35l3.435-10.109h1.575l3.45,10.109h-1.395l-1.08-3.18H34.918z M38.233,41.202
		l-0.99-2.909c-0.225-0.66-0.375-1.261-0.525-1.846h-0.03c-0.15,0.601-0.315,1.216-0.51,1.83l-0.99,2.925H38.233z"/>
	<path fill="#DD0707" d="M43.768,35.293v10.109h-1.305V35.293H43.768z"/>
	<path fill="#DD0707" d="M46.048,35.293h1.305v9.015h4.319v1.095h-5.624V35.293z"/>
	<path fill="#DD0707" d="M54.763,42.223l-1.05,3.18h-1.35l3.435-10.109h1.575l3.449,10.109h-1.395l-1.08-3.18H54.763z
		 M58.078,41.202l-0.99-2.909c-0.225-0.66-0.375-1.261-0.525-1.846h-0.029c-0.15,0.601-0.315,1.216-0.511,1.83l-0.989,2.925H58.078z
		"/>
	<path fill="#DD0707" d="M62.308,35.428c0.569-0.12,1.47-0.21,2.385-0.21c1.305,0,2.146,0.225,2.774,0.735
		c0.525,0.39,0.84,0.989,0.84,1.784c0,0.976-0.645,1.83-1.709,2.221v0.029c0.959,0.24,2.084,1.035,2.084,2.535
		c0,0.87-0.344,1.53-0.854,2.025c-0.705,0.645-1.845,0.944-3.495,0.944c-0.899,0-1.59-0.06-2.024-0.12V35.428z M63.612,39.567h1.185
		c1.381,0,2.19-0.72,2.19-1.694c0-1.186-0.899-1.65-2.22-1.65c-0.6,0-0.945,0.045-1.155,0.09V39.567z M63.612,44.412
		c0.255,0.045,0.63,0.061,1.095,0.061c1.35,0,2.596-0.495,2.596-1.965c0-1.38-1.186-1.95-2.61-1.95h-1.08V44.412z"/>
	<path fill="#DD0707" d="M70.438,35.293h1.305v9.015h4.32v1.095h-5.625V35.293z"/>
	<path fill="#DD0707" d="M82.752,40.662h-3.93v3.646h4.38v1.095h-5.685V35.293h5.459v1.095h-4.154v3.195h3.93V40.662z"/>
	<path fill="#DD0707" d="M13.708,53.293v10.109h-1.305V53.293H13.708z"/>
	<path fill="#DD0707" d="M15.988,63.402V53.293h1.425l3.24,5.114c0.75,1.186,1.335,2.25,1.815,3.285l0.03-0.015
		c-0.12-1.351-0.15-2.58-0.15-4.155v-4.229h1.23v10.109h-1.32l-3.21-5.13c-0.705-1.125-1.38-2.28-1.89-3.375l-0.045,0.016
		c0.075,1.274,0.105,2.489,0.105,4.169v4.32H15.988z"/>
	<path fill="#DD0707" d="M29.038,53.413c0.63-0.105,1.455-0.195,2.505-0.195c1.29,0,2.235,0.3,2.835,0.84
		c0.555,0.48,0.885,1.215,0.885,2.115c0,0.915-0.27,1.635-0.78,2.16c-0.69,0.734-1.815,1.109-3.09,1.109
		c-0.39,0-0.75-0.015-1.05-0.09v4.05h-1.305V53.413z M30.343,58.287c0.285,0.075,0.645,0.105,1.08,0.105
		c1.575,0,2.535-0.765,2.535-2.16c0-1.335-0.945-1.979-2.385-1.979c-0.57,0-1.005,0.045-1.23,0.104V58.287z"/>
	<path fill="#DD0707" d="M37.018,53.428c0.66-0.135,1.605-0.21,2.505-0.21c1.395,0,2.295,0.255,2.925,0.825
		c0.51,0.45,0.795,1.14,0.795,1.92c0,1.335-0.84,2.22-1.905,2.58v0.045c0.78,0.27,1.245,0.989,1.485,2.04
		c0.33,1.409,0.57,2.385,0.78,2.774h-1.35c-0.165-0.285-0.39-1.155-0.675-2.415c-0.3-1.395-0.84-1.92-2.025-1.965h-1.23v4.38h-1.305
		V53.428z M38.323,58.032h1.335c1.395,0,2.28-0.765,2.28-1.92c0-1.305-0.945-1.875-2.325-1.89c-0.63,0-1.08,0.061-1.29,0.12V58.032z
		"/>
	<path fill="#DD0707" d="M50.322,58.662h-3.93v3.646h4.38v1.095h-5.685V53.293h5.459v1.095h-4.154v3.195h3.93V58.662z"/>
	<path fill="#DD0707" d="M60.987,58.963c-0.075-1.41-0.165-3.105-0.149-4.365h-0.045c-0.346,1.185-0.766,2.445-1.275,3.84
		l-1.785,4.905h-0.99l-1.635-4.815c-0.48-1.425-0.885-2.729-1.17-3.93h-0.029c-0.031,1.26-0.105,2.955-0.195,4.47l-0.271,4.335
		h-1.245l0.705-10.109h1.665l1.726,4.89c0.42,1.245,0.765,2.354,1.02,3.405h0.045c0.255-1.021,0.615-2.131,1.064-3.405l1.801-4.89
		h1.664l0.631,10.109h-1.275L60.987,58.963z"/>
	<path fill="#DD0707" d="M65.832,53.293v10.109h-1.305V53.293H65.832z"/>
	<path fill="#DD0707" d="M69.417,53.293v5.984c0,2.265,1.005,3.225,2.354,3.225c1.5,0,2.461-0.989,2.461-3.225v-5.984h1.319v5.895
		c0,3.104-1.635,4.38-3.825,4.38c-2.069,0-3.629-1.185-3.629-4.32v-5.954H69.417z"/>
	<path fill="#DD0707" d="M86.337,58.963c-0.075-1.41-0.165-3.105-0.149-4.365h-0.045c-0.346,1.185-0.766,2.445-1.275,3.84
		l-1.785,4.905h-0.99l-1.635-4.815c-0.48-1.425-0.885-2.729-1.17-3.93h-0.029c-0.031,1.26-0.105,2.955-0.195,4.47l-0.271,4.335
		h-1.245l0.705-10.109h1.665l1.726,4.89c0.42,1.245,0.765,2.354,1.02,3.405h0.045c0.255-1.021,0.615-2.131,1.064-3.405l1.801-4.89
		h1.664l0.631,10.109h-1.275L86.337,58.963z"/>
</g>
</svg>
