<?xml version="1.0" encoding="utf-8"?>
<!-- Generator: Adobe Illustrator 16.0.2, SVG Export Plug-In . SVG Version: 6.00 Build 0)  -->
<!DOCTYPE svg PUBLIC "-//W3C//DTD SVG 1.1//EN" "http://www.w3.org/Graphics/SVG/1.1/DTD/svg11.dtd">
<svg version="1.1" id="Layer_1" xmlns="http://www.w3.org/2000/svg" xmlns:xlink="http://www.w3.org/1999/xlink" x="0px" y="0px"
	 width="100px" height="100px" viewBox="0 0 100 100" enable-background="new 0 0 100 100" xml:space="preserve">
<g id="hand_x5F_r">
	<g>
		<g>
			<path fill="#583A15" d="M62.152,64.197c8.354-8.355,16.742-16.829,26.474-23.6c1.011-0.704,0.051-2.373-0.972-1.662
				c-9.87,6.868-18.389,15.426-26.863,23.901C59.913,63.715,61.273,65.075,62.152,64.197L62.152,64.197z"/>
		</g>
	</g>
	<path fill="#CD2727" d="M83.551,38.166c0.012,0.002,0.494-0.389,0.619-0.428c0.068-0.021,0.13-0.04,0.188-0.055
		c0.108-0.743,0.195-1.454-0.23-2.189c-0.363-0.633-0.877-1.157-1.218-1.808c-0.55-1.049,0.094-1.854,1.069-2.197
		c0.396-0.139,0.815,0.094,1.03,0.42c0.308,0.469,0.709,0.861,1.106,1.256c0.988-1.91,2.357-3.707,4.183-4.815
		c2.263-1.375,4.28,0.206,5.134,2.345c1.028,2.583-0.563,5.681-1.998,7.751c-1.431,2.064-3.396,4.039-5.74,5.04
		c-0.107,0.071-0.229,0.119-0.357,0.131c-0.311,0.066-0.559-0.051-0.723-0.256c-1.618-1.032-3.024-2.232-4.092-3.853
		C82.038,38.773,82.83,38.044,83.551,38.166z"/>
</g>
<g id="hand_x5F_l">
	<g>
		<g>
			<path fill="#583A15" d="M36.493,62.836c-8.477-8.475-16.995-17.034-26.868-23.901c-1.022-0.71-1.982,0.959-0.972,1.662
				c9.734,6.771,18.122,15.245,26.479,23.6C36.011,65.075,37.372,63.715,36.493,62.836L36.493,62.836z"/>
		</g>
	</g>
	<path fill="#CD2727" d="M4.506,32.921c0.711-2.396,2.932-3.447,5.133-2.346c1.826,0.914,3.219,2.9,4.188,4.811
		c0.396-0.393,0.794-0.784,1.1-1.25c0.215-0.329,0.635-0.561,1.032-0.422c0.959,0.337,1.439,0.943,1.161,1.979
		c-0.162,0.608-0.685,1.154-1.05,1.647c-0.661,0.894-0.475,1.75-0.31,2.674c0.431,0.148,0.811,0.345,0.624,0.377
		c0.723-0.125,1.514,0.607,1.03,1.342c-1.066,1.621-2.473,2.821-4.091,3.852c-0.164,0.206-0.411,0.323-0.72,0.257
		c-0.132-0.013-0.251-0.061-0.359-0.13C7.889,43.853,3.045,37.832,4.506,32.921z"/>
</g>
<circle fill="#F4F4F4" cx="48.642" cy="69.082" r="29.918"/>
<path fill="#D6EFF3" d="M48.641,39.163c-0.322,0-0.641,0.014-0.961,0.024c16.076,0.509,28.957,13.694,28.957,29.896
	c0,16.199-12.881,29.384-28.957,29.894C48,98.984,48.319,99,48.641,99c16.524,0,29.919-13.396,29.919-29.918
	C78.561,52.559,65.165,39.163,48.641,39.163z"/>
<circle fill="#F4F4F4" cx="48.642" cy="25.179" r="20.487"/>
<path fill="#D6EFF3" d="M48.641,4.69c-0.322,0-0.642,0.01-0.961,0.025c10.868,0.502,19.525,9.471,19.525,20.463
	c0,10.992-8.657,19.961-19.525,20.463c0.319,0.015,0.639,0.025,0.961,0.025c11.316,0,20.488-9.173,20.488-20.488
	C69.129,13.863,59.957,4.69,48.641,4.69z"/>
<g>
	<path fill="#F05123" d="M54.445,24.055c5.845-0.365,12.787-2.38,21.557-1.096c-4.384,3.289-14.979,5.115-20.825,6.211
		C54.813,27.709,54.445,25.518,54.445,24.055"/>
</g>
<g id="eye_x5F_8_x5F_r">
	<g>
		<path fill="#555655" d="M58.83,20.133c2.48,0,2.48-3.849,0-3.849S56.35,20.133,58.83,20.133L58.83,20.133z"/>
	</g>
</g>
<g id="eye_x5F_8_x5F_l">
	<g>
		<path fill="#555655" d="M47.139,22.788c0.122,0,0.243,0,0.365,0c2.098,0,3.85-1.75,3.85-3.849s-1.751-3.849-3.85-3.849
			c-0.122,0-0.243,0-0.365,0c-2.098,0-3.849,1.75-3.849,3.849S45.041,22.788,47.139,22.788L47.139,22.788z"/>
	</g>
</g>
<g>
	<g>
		<path fill="#555655" d="M57.916,62.02c0.122,0,0.243,0,0.365,0c1.572,0,2.887-1.313,2.887-2.888c0-1.573-1.313-2.887-2.887-2.887
			c-0.122,0-0.243,0-0.365,0c-1.573,0-2.887,1.313-2.887,2.887C55.029,60.706,56.343,62.02,57.916,62.02L57.916,62.02z"/>
	</g>
</g>
<g>
	<g>
		<path fill="#555655" d="M60.107,73.709c0.123,0,0.246,0,0.367,0c1.573,0,2.887-1.313,2.887-2.887s-1.313-2.887-2.887-2.887
			c-0.121,0-0.244,0-0.367,0c-1.572,0-2.887,1.313-2.887,2.887S58.535,73.709,60.107,73.709L60.107,73.709z"/>
	</g>
</g>
<g>
	<g>
		<path fill="#555655" d="M58.648,84.672c0.121,0,0.242,0,0.363,0c1.573,0,2.887-1.313,2.887-2.887s-1.313-2.887-2.887-2.887
			c-0.121,0-0.242,0-0.363,0c-1.573,0-2.887,1.313-2.887,2.887S57.075,84.672,58.648,84.672L58.648,84.672z"/>
	</g>
</g>
<g>
	<g>
		<path fill="#555655" d="M57.479,34.259c-6.025,1.002-11.681,3.328-15.72-2.86c-0.676-1.034-2.342-0.071-1.662,0.972
			c4.626,7.086,10.799,4.923,17.893,3.744C59.211,35.912,58.691,34.058,57.479,34.259L57.479,34.259z"/>
	</g>
</g>
<path fill="#CD2727" d="M30.715,38.194c9.508,3.653,25.809,4.02,35.771,2.192c-0.123,0.244-0.233,0.502-0.34,0.771
	c0.074,0.324,0.164,0.649,0.258,0.975c0.158-0.21-0.467,0.649,0,0c-0.088,0.463,0.303,0.283,0.232,0.753
	c2.486,7.489,9.688,15.155,13.748,21.251c-2.189,1.098-4.746,2.192-6.939,2.192c-4.516-3.488-6.148-7.67-7.618-11.638
	c-0.091,1.821-0.209,3.64-0.42,5.426c-1.826-0.364-4.384-0.364-6.212-0.364c-0.301-3.011,0.144-9.001,1.332-12.854
	c-10.49-0.286-21.525-1.396-29.813-1.396C30.715,43.309,30.715,40.751,30.715,38.194z"/>
<g>
	<g>
		<path fill="#555655" d="M69.255,13.934C67.339,4.88,57.262-0.648,48.503,0.208C38.991,1.139,32.784,7.491,30.5,16.492
			c-0.306,1.204,1.55,1.714,1.855,0.512C34.247,9.55,38.583,4.445,46.166,2.54C54.693,0.397,65.48,5.372,67.4,14.446
			C67.656,15.66,69.512,15.145,69.255,13.934L69.255,13.934z"/>
	</g>
</g>
<g>
	<path fill="#56BC76" d="M35.446,14.556c0.187,0.56,0.302,1.045,0.36,1.464l0.007-0.003c0.002,0.025,0.001,0.048,0.002,0.073
		c0.096,0.766-0.01,1.301-0.245,1.649c-0.967,2.289-4.338,2.745-5.239-0.259C29.6,14.556,34.35,10.901,35.446,14.556z"/>
	<g>
		<path fill="#56BC76" d="M34.519,14.812c0.153,0.483,0.279,0.963,0.36,1.464c0.104,0.652,0.912,0.826,1.414,0.575
			c0.002-0.001,0.004-0.002,0.007-0.003c-0.483-0.277-0.965-0.554-1.448-0.831c0.038,1.119-0.291,2.138-1.457,2.533
			c-1.029,0.349-2.048-0.458-2.169-1.503C31.058,15.604,33.747,12.544,34.519,14.812c0.397,1.168,2.256,0.667,1.855-0.512
			c-1.607-4.723-7.486-0.816-7.049,2.964c0.235,2.033,2.121,3.599,4.168,3.231c2.208-0.396,3.352-2.381,3.282-4.479
			c-0.026-0.758-0.791-1.16-1.448-0.831c-0.002,0.001-0.004,0.002-0.007,0.003c0.471,0.192,0.942,0.384,1.414,0.575
			c-0.08-0.5-0.207-0.98-0.36-1.464C36,13.122,34.143,13.625,34.519,14.812z"/>
	</g>
</g>
<g>
	<path fill="#56BC76" d="M69.063,19.671c-0.365-2.192-1.828-4.384-3.291-6.211c4.021-0.731,6.211,3.288,3.654,6.211"/>
	<g>
		<path fill="#56BC76" d="M69.988,19.415c-0.497-2.523-1.971-4.652-3.536-6.635c-0.142,0.536-0.283,1.072-0.425,1.608
			c2.822-0.425,4.578,2.335,2.718,4.603c-0.779,0.951,0.573,2.321,1.36,1.36c1.338-1.63,1.781-3.584,0.851-5.531
			c-0.979-2.049-3.394-2.596-5.44-2.288c-0.799,0.12-0.813,1.115-0.425,1.608c1.365,1.728,2.61,3.595,3.043,5.787
			C68.374,21.144,70.229,20.627,69.988,19.415L69.988,19.415z"/>
	</g>
</g>
<g>
	<path fill="#DD0707" d="M19.018,42.223l-1.05,3.18h-1.35l3.435-10.109h1.575l3.45,10.109h-1.395l-1.08-3.18H19.018z M22.333,41.202
		l-0.99-2.909c-0.225-0.66-0.375-1.261-0.525-1.846h-0.03c-0.15,0.601-0.315,1.216-0.51,1.83l-0.99,2.925H22.333z"/>
	<path fill="#DD0707" d="M27.988,45.402l-3.3-10.109h1.41l1.575,4.979c0.435,1.365,0.81,2.595,1.08,3.78h0.03
		c0.285-1.17,0.705-2.445,1.155-3.766l1.71-4.994h1.395l-3.615,10.109H27.988z"/>
	<path fill="#DD0707" d="M34.918,42.223l-1.05,3.18h-1.35l3.435-10.109h1.575l3.45,10.109h-1.395l-1.08-3.18H34.918z M38.233,41.202
		l-0.99-2.909c-0.225-0.66-0.375-1.261-0.525-1.846h-0.03c-0.15,0.601-0.315,1.216-0.51,1.83l-0.99,2.925H38.233z"/>
	<path fill="#DD0707" d="M43.768,35.293v10.109h-1.305V35.293H43.768z"/>
	<path fill="#DD0707" d="M46.048,35.293h1.305v9.015h4.319v1.095h-5.624V35.293z"/>
	<path fill="#DD0707" d="M54.763,42.223l-1.05,3.18h-1.35l3.435-10.109h1.575l3.449,10.109h-1.395l-1.08-3.18H54.763z
		 M58.078,41.202l-0.99-2.909c-0.225-0.66-0.375-1.261-0.525-1.846h-0.029c-0.15,0.601-0.315,1.216-0.511,1.83l-0.989,2.925H58.078z
		"/>
	<path fill="#DD0707" d="M62.308,35.428c0.569-0.12,1.47-0.21,2.385-0.21c1.305,0,2.146,0.225,2.774,0.735
		c0.525,0.39,0.84,0.989,0.84,1.784c0,0.976-0.645,1.83-1.709,2.221v0.029c0.959,0.24,2.084,1.035,2.084,2.535
		c0,0.87-0.344,1.53-0.854,2.025c-0.705,0.645-1.845,0.944-3.495,0.944c-0.899,0-1.59-0.06-2.024-0.12V35.428z M63.612,39.567h1.185
		c1.381,0,2.19-0.72,2.19-1.694c0-1.186-0.899-1.65-2.22-1.65c-0.6,0-0.945,0.045-1.155,0.09V39.567z M63.612,44.412
		c0.255,0.045,0.63,0.061,1.095,0.061c1.35,0,2.596-0.495,2.596-1.965c0-1.38-1.186-1.95-2.61-1.95h-1.08V44.412z"/>
	<path fill="#DD0707" d="M70.438,35.293h1.305v9.015h4.32v1.095h-5.625V35.293z"/>
	<path fill="#DD0707" d="M82.752,40.662h-3.93v3.646h4.38v1.095h-5.685V35.293h5.459v1.095h-4.154v3.195h3.93V40.662z"/>
	<path fill="#DD0707" d="M13.708,53.293v10.109h-1.305V53.293H13.708z"/>
	<path fill="#DD0707" d="M15.988,63.402V53.293h1.425l3.24,5.114c0.75,1.186,1.335,2.25,1.815,3.285l0.03-0.015
		c-0.12-1.351-0.15-2.58-0.15-4.155v-4.229h1.23v10.109h-1.32l-3.21-5.13c-0.705-1.125-1.38-2.28-1.89-3.375l-0.045,0.016
		c0.075,1.274,0.105,2.489,0.105,4.169v4.32H15.988z"/>
	<path fill="#DD0707" d="M29.038,53.413c0.63-0.105,1.455-0.195,2.505-0.195c1.29,0,2.235,0.3,2.835,0.84
		c0.555,0.48,0.885,1.215,0.885,2.115c0,0.915-0.27,1.635-0.78,2.16c-0.69,0.734-1.815,1.109-3.09,1.109
		c-0.39,0-0.75-0.015-1.05-0.09v4.05h-1.305V53.413z M30.343,58.287c0.285,0.075,0.645,0.105,1.08,0.105
		c1.575,0,2.535-0.765,2.535-2.16c0-1.335-0.945-1.979-2.385-1.979c-0.57,0-1.005,0.045-1.23,0.104V58.287z"/>
	<path fill="#DD0707" d="M37.018,53.428c0.66-0.135,1.605-0.21,2.505-0.21c1.395,0,2.295,0.255,2.925,0.825
		c0.51,0.45,0.795,1.14,0.795,1.92c0,1.335-0.84,2.22-1.905,2.58v0.045c0.78,0.27,1.245,0.989,1.485,2.04
		c0.33,1.409,0.57,2.385,0.78,2.774h-1.35c-0.165-0.285-0.39-1.155-0.675-2.415c-0.3-1.395-0.84-1.92-2.025-1.965h-1.23v4.38h-1.305
		V53.428z M38.323,58.032h1.335c1.395,0,2.28-0.765,2.28-1.92c0-1.305-0.945-1.875-2.325-1.89c-0.63,0-1.08,0.061-1.29,0.12V58.032z
		"/>
	<path fill="#DD0707" d="M50.322,58.662h-3.93v3.646h4.38v1.095h-5.685V53.293h5.459v1.095h-4.154v3.195h3.93V58.662z"/>
	<path fill="#DD0707" d="M60.987,58.963c-0.075-1.41-0.165-3.105-0.149-4.365h-0.045c-0.346,1.185-0.766,2.445-1.275,3.84
		l-1.785,4.905h-0.99l-1.635-4.815c-0.48-1.425-0.885-2.729-1.17-3.93h-0.029c-0.031,1.26-0.105,2.955-0.195,4.47l-0.271,4.335
		h-1.245l0.705-10.109h1.665l1.726,4.89c0.42,1.245,0.765,2.354,1.02,3.405h0.045c0.255-1.021,0.615-2.131,1.064-3.405l1.801-4.89
		h1.664l0.631,10.109h-1.275L60.987,58.963z"/>
	<path fill="#DD0707" d="M65.832,53.293v10.109h-1.305V53.293H65.832z"/>
	<path fill="#DD0707" d="M69.417,53.293v5.984c0,2.265,1.005,3.225,2.354,3.225c1.5,0,2.461-0.989,2.461-3.225v-5.984h1.319v5.895
		c0,3.104-1.635,4.38-3.825,4.38c-2.069,0-3.629-1.185-3.629-4.32v-5.954H69.417z"/>
	<path fill="#DD0707" d="M86.337,58.963c-0.075-1.41-0.165-3.105-0.149-4.365h-0.045c-0.346,1.185-0.766,2.445-1.275,3.84
		l-1.785,4.905h-0.99l-1.635-4.815c-0.48-1.425-0.885-2.729-1.17-3.93h-0.029c-0.031,1.26-0.105,2.955-0.195,4.47l-0.271,4.335
		h-1.245l0.705-10.109h1.665l1.726,4.89c0.42,1.245,0.765,2.354,1.02,3.405h0.045c0.255-1.021,0.615-2.131,1.064-3.405l1.801-4.89
		h1.664l0.631,10.109h-1.275L86.337,58.963z"/>
</g>
</svg>
