<?xml version="1.0" encoding="utf-8"?>
<!-- Generator: Adobe Illustrator 16.0.2, SVG Export Plug-In . SVG Version: 6.00 Build 0)  -->
<!DOCTYPE svg PUBLIC "-//W3C//DTD SVG 1.1//EN" "http://www.w3.org/Graphics/SVG/1.1/DTD/svg11.dtd">
<svg version="1.1" id="Layer_1" xmlns="http://www.w3.org/2000/svg" xmlns:xlink="http://www.w3.org/1999/xlink" x="0px" y="0px"
	 width="100px" height="100px" viewBox="0 0 100 100" enable-background="new 0 0 100 100" xml:space="preserve">
<circle fill="#FFFFFF" cx="48.846" cy="75" r="25"/>
<path fill="#D6EEF4" d="M63.846,55c3.141,4.18,5,9.372,5,15c0,13.807-11.191,25-25,25c-5.628,0-10.821-1.861-15-5
	c4.561,6.072,11.821,10,20,10c13.808,0,25-11.193,25-25C73.846,66.82,69.918,59.561,63.846,55z"/>
<path fill="#57B8E8" d="M63.346,60.5c1.883-0.376,2.631-2.453,2.887-3.456C61.73,52.688,55.604,50,48.845,50
	c-6.562,0-12.529,2.531-16.989,6.666c2.828,0.914,16.694,5.324,18.489,4.501c2-0.917-2,8.667-2,8.667s7.333,0.083,7.667-1
	c0.334-1.084,0.25-3.417,1.668-6c1.416-2.584,3.332,7.666,3.332,7.666l6.668-2.666C67.68,67.834,60.846,61,63.346,60.5z"/>
<circle fill="#555655" cx="41.346" cy="70" r="3"/>
<circle fill="#555655" cx="41.346" cy="82.5" r="3"/>
<path fill="#439ECC" d="M48.845,50c-3.483,0-6.795,0.719-9.807,2.007C40.043,54.215,44.968,57,51.846,57
	c8.334,0,8.264-1.709,10.879-2.787C58.753,51.555,53.982,50,48.845,50z"/>
<circle fill="#FFFFFF" cx="48.846" cy="35" r="20"/>
<path fill="#D6EEF4" d="M60.848,18.999c2.514,3.344,3.998,7.497,3.998,12.002c0,11.043-8.951,19.998-20,19.998
	c-4.508,0-8.658-1.487-12.001-3.998c3.648,4.856,9.458,7.999,16,7.999c11.043,0,20-8.953,20-20
	C68.846,28.457,65.704,22.648,60.848,18.999z"/>
<circle fill="#555655" cx="38.846" cy="27.5" r="2"/>
<circle fill="#555655" cx="51.346" cy="29" r="2"/>
<path id="nose_x5F_snwm_x5F_02" fill="#EB5251" d="M42.923,32.25L19.846,37.5l23.078,2.25c0,0,1.922-0.563,1.922-3.75
	C44.846,32.626,42.923,32.25,42.923,32.25z"/>
<path fill="none" stroke="#555655" stroke-width="3" stroke-linecap="round" stroke-linejoin="round" stroke-miterlimit="10" d="
	M36.846,41.5c0,0,2.833,4,7,4s7-3,7-3"/>
<g>
	<path fill="#353535" d="M70.785,6.932c0,0-1.944-3.368-11.428-5.65C49.876-1,46.637,0.461,46.637,0.461s1.509,4.027,0.474,7.892
		c-1.035,3.863-4.356,6.598-4.356,6.598l24.147,6.47c0,0-1.25-4.993-0.473-7.891C67.206,10.631,70.785,6.932,70.785,6.932z"/>
	<path fill="#57B8E8" d="M66.421,13.565l-19.118-6.11c-0.052,0.299-0.112,0.599-0.192,0.897c-1.035,3.863-4.356,6.598-4.356,6.598
		l24.147,6.47C66.902,21.42,65.664,16.468,66.421,13.565z"/>
	<path fill="#439ECC" d="M66.824,21.083c-0.26-1.162-1.041-5.066-0.404-7.516c0-0.001,0.001-0.001,0.001-0.002l-9.282-2.967
		l-2.121,7.637l11.887,3.185c0,0-0.028-0.112-0.073-0.31C66.828,21.101,66.826,21.093,66.824,21.083z"/>
	<path fill="#303030" d="M55.346,14.5c-14.67-3.931-27.008-6.327-28.438-0.992c-0.717,2.675,1.625,5.896,5.988,8.94
		c2.846-3.005,7.134-4.131,12.7-2.448c16.501,4.989,22.315,4.155,23.14,12.59c6.182-0.242,10.511-1.905,11.299-4.848
		C81.463,22.408,70.016,18.431,55.346,14.5z"/>
</g>
<g>
	<path fill="#DD0707" d="M19.018,42.223l-1.05,3.18h-1.35l3.435-10.109h1.575l3.45,10.109h-1.395l-1.08-3.18H19.018z M22.333,41.202
		l-0.99-2.909c-0.225-0.66-0.375-1.261-0.525-1.846h-0.03c-0.15,0.601-0.315,1.216-0.51,1.83l-0.99,2.925H22.333z"/>
	<path fill="#DD0707" d="M27.988,45.402l-3.3-10.109h1.41l1.575,4.979c0.435,1.365,0.81,2.595,1.08,3.78h0.03
		c0.285-1.17,0.705-2.445,1.155-3.766l1.71-4.994h1.395l-3.615,10.109H27.988z"/>
	<path fill="#DD0707" d="M34.918,42.223l-1.05,3.18h-1.35l3.435-10.109h1.575l3.45,10.109h-1.395l-1.08-3.18H34.918z M38.233,41.202
		l-0.99-2.909c-0.225-0.66-0.375-1.261-0.525-1.846h-0.03c-0.15,0.601-0.315,1.216-0.51,1.83l-0.99,2.925H38.233z"/>
	<path fill="#DD0707" d="M43.768,35.293v10.109h-1.305V35.293H43.768z"/>
	<path fill="#DD0707" d="M46.048,35.293h1.305v9.015h4.319v1.095h-5.624V35.293z"/>
	<path fill="#DD0707" d="M54.763,42.223l-1.05,3.18h-1.35l3.435-10.109h1.575l3.449,10.109h-1.395l-1.08-3.18H54.763z
		 M58.078,41.202l-0.99-2.909c-0.225-0.66-0.375-1.261-0.525-1.846h-0.029c-0.15,0.601-0.315,1.216-0.511,1.83l-0.989,2.925H58.078z
		"/>
	<path fill="#DD0707" d="M62.308,35.428c0.569-0.12,1.47-0.21,2.385-0.21c1.305,0,2.146,0.225,2.774,0.735
		c0.525,0.39,0.84,0.989,0.84,1.784c0,0.976-0.645,1.83-1.709,2.221v0.029c0.959,0.24,2.084,1.035,2.084,2.535
		c0,0.87-0.344,1.53-0.854,2.025c-0.705,0.645-1.845,0.944-3.495,0.944c-0.899,0-1.59-0.06-2.024-0.12V35.428z M63.612,39.567h1.185
		c1.381,0,2.19-0.72,2.19-1.694c0-1.186-0.899-1.65-2.22-1.65c-0.6,0-0.945,0.045-1.155,0.09V39.567z M63.612,44.412
		c0.255,0.045,0.63,0.061,1.095,0.061c1.35,0,2.596-0.495,2.596-1.965c0-1.38-1.186-1.95-2.61-1.95h-1.08V44.412z"/>
	<path fill="#DD0707" d="M70.438,35.293h1.305v9.015h4.32v1.095h-5.625V35.293z"/>
	<path fill="#DD0707" d="M82.752,40.662h-3.93v3.646h4.38v1.095h-5.685V35.293h5.459v1.095h-4.154v3.195h3.93V40.662z"/>
	<path fill="#DD0707" d="M13.708,53.293v10.109h-1.305V53.293H13.708z"/>
	<path fill="#DD0707" d="M15.988,63.402V53.293h1.425l3.24,5.114c0.75,1.186,1.335,2.25,1.815,3.285l0.03-0.015
		c-0.12-1.351-0.15-2.58-0.15-4.155v-4.229h1.23v10.109h-1.32l-3.21-5.13c-0.705-1.125-1.38-2.28-1.89-3.375l-0.045,0.016
		c0.075,1.274,0.105,2.489,0.105,4.169v4.32H15.988z"/>
	<path fill="#DD0707" d="M29.038,53.413c0.63-0.105,1.455-0.195,2.505-0.195c1.29,0,2.235,0.3,2.835,0.84
		c0.555,0.48,0.885,1.215,0.885,2.115c0,0.915-0.27,1.635-0.78,2.16c-0.69,0.734-1.815,1.109-3.09,1.109
		c-0.39,0-0.75-0.015-1.05-0.09v4.05h-1.305V53.413z M30.343,58.287c0.285,0.075,0.645,0.105,1.08,0.105
		c1.575,0,2.535-0.765,2.535-2.16c0-1.335-0.945-1.979-2.385-1.979c-0.57,0-1.005,0.045-1.23,0.104V58.287z"/>
	<path fill="#DD0707" d="M37.018,53.428c0.66-0.135,1.605-0.21,2.505-0.21c1.395,0,2.295,0.255,2.925,0.825
		c0.51,0.45,0.795,1.14,0.795,1.92c0,1.335-0.84,2.22-1.905,2.58v0.045c0.78,0.27,1.245,0.989,1.485,2.04
		c0.33,1.409,0.57,2.385,0.78,2.774h-1.35c-0.165-0.285-0.39-1.155-0.675-2.415c-0.3-1.395-0.84-1.92-2.025-1.965h-1.23v4.38h-1.305
		V53.428z M38.323,58.032h1.335c1.395,0,2.28-0.765,2.28-1.92c0-1.305-0.945-1.875-2.325-1.89c-0.63,0-1.08,0.061-1.29,0.12V58.032z
		"/>
	<path fill="#DD0707" d="M50.322,58.662h-3.93v3.646h4.38v1.095h-5.685V53.293h5.459v1.095h-4.154v3.195h3.93V58.662z"/>
	<path fill="#DD0707" d="M60.987,58.963c-0.075-1.41-0.165-3.105-0.149-4.365h-0.045c-0.346,1.185-0.766,2.445-1.275,3.84
		l-1.785,4.905h-0.99l-1.635-4.815c-0.48-1.425-0.885-2.729-1.17-3.93h-0.029c-0.031,1.26-0.105,2.955-0.195,4.47l-0.271,4.335
		h-1.245l0.705-10.109h1.665l1.726,4.89c0.42,1.245,0.765,2.354,1.02,3.405h0.045c0.255-1.021,0.615-2.131,1.064-3.405l1.801-4.89
		h1.664l0.631,10.109h-1.275L60.987,58.963z"/>
	<path fill="#DD0707" d="M65.832,53.293v10.109h-1.305V53.293H65.832z"/>
	<path fill="#DD0707" d="M69.417,53.293v5.984c0,2.265,1.005,3.225,2.354,3.225c1.5,0,2.461-0.989,2.461-3.225v-5.984h1.319v5.895
		c0,3.104-1.635,4.38-3.825,4.38c-2.069,0-3.629-1.185-3.629-4.32v-5.954H69.417z"/>
	<path fill="#DD0707" d="M86.337,58.963c-0.075-1.41-0.165-3.105-0.149-4.365h-0.045c-0.346,1.185-0.766,2.445-1.275,3.84
		l-1.785,4.905h-0.99l-1.635-4.815c-0.48-1.425-0.885-2.729-1.17-3.93h-0.029c-0.031,1.26-0.105,2.955-0.195,4.47l-0.271,4.335
		h-1.245l0.705-10.109h1.665l1.726,4.89c0.42,1.245,0.765,2.354,1.02,3.405h0.045c0.255-1.021,0.615-2.131,1.064-3.405l1.801-4.89
		h1.664l0.631,10.109h-1.275L86.337,58.963z"/>
</g>
</svg>
