<?xml version="1.0" encoding="utf-8"?>
<!-- Generator: Adobe Illustrator 16.0.2, SVG Export Plug-In . SVG Version: 6.00 Build 0)  -->
<!DOCTYPE svg PUBLIC "-//W3C//DTD SVG 1.1//EN" "http://www.w3.org/Graphics/SVG/1.1/DTD/svg11.dtd">
<svg version="1.1" id="Layer_1" xmlns="http://www.w3.org/2000/svg" xmlns:xlink="http://www.w3.org/1999/xlink" x="0px" y="0px"
	 width="100px" height="100px" viewBox="0 0 100 100" enable-background="new 0 0 100 100" xml:space="preserve">
<g>
	<path fill="#FAFBF7" d="M80.086,68.756c-0.723-9.469-7.686-18.232-16.457-22.037c2.518-2.39,4.254-5.497,4.561-9.17
		c0.313-1.325,0.344-2.748,0.065-4.164c-1.267-6.479-5.836-12.625-12.616-13.922c-2.668-0.511-5.246-0.445-7.703,0.087
		c-1.939,0.164-3.87,0.66-5.702,1.552c-4.256,2.073-8.042,6.757-9.189,11.69c-0.021,0.08-0.036,0.161-0.054,0.24
		c-0.038,0.178-0.082,0.354-0.114,0.532c-0.465,2.313-0.383,4.696,0.449,6.865c0.61,1.59,1.479,3.069,2.527,4.415
		c0.469,0.893,1.027,1.723,1.652,2.498c-0.481,0.2-0.96,0.409-1.433,0.639c-7.196,3.503-13.6,11.429-15.542,19.771
		c-0.035,0.134-0.059,0.273-0.091,0.409c-0.063,0.3-0.138,0.598-0.191,0.897c-0.788,3.91-0.281,7.821,0.76,11.611
		c3.924,14.27,16.122,19.141,28.807,19.326C75.939,100.379,80.707,76.91,80.086,68.756z"/>
</g>
<g>
	<path fill="#D6EFF3" d="M80.086,68.756c-0.455-5.965-3.388-11.648-7.688-15.99c2.992,3.883,4.961,8.496,5.326,13.295
		c0.623,8.152-4.146,31.621-30.27,31.238c-8.38-0.123-16.546-2.293-22.256-7.863c5.664,7.582,14.998,10.42,24.616,10.562
		C75.939,100.379,80.707,76.91,80.086,68.756z"/>
</g>
<g>
	<path fill="#555655" d="M53.499,64.632c0.03,0.759-0.328,1.64-0.894,2.153c-1.162,1.056-2.878,1.174-4.043,0.046
		c-0.854-0.827-1.042-2.063-0.604-3.092c0.051-0.146,0.126-0.273,0.203-0.399c0-0.001,0.001-0.002,0.002-0.003
		c0.083-0.14,0.182-0.269,0.297-0.382c0.017-0.02,0.028-0.041,0.047-0.061c0.072-0.076,0.155-0.137,0.234-0.205l0,0
		c0.716-0.609,1.675-0.862,2.55-0.647c0.064,0.01,0.127,0.026,0.188,0.041c0.006,0.002,0.008,0.002,0.013,0.003
		c0.261,0.063,0.511,0.159,0.731,0.314C52.992,62.938,53.459,63.682,53.499,64.632z M52.122,71.329
		c-0.224-0.156-0.476-0.252-0.733-0.315c-0.004,0-0.009,0-0.013-0.002c-0.063-0.015-0.123-0.033-0.188-0.041
		c-0.875-0.216-1.833,0.037-2.549,0.647l0,0c-0.08,0.069-0.163,0.13-0.234,0.204c-0.019,0.02-0.03,0.042-0.047,0.06
		c-0.115,0.117-0.214,0.242-0.297,0.382c-0.002,0.002-0.002,0.004-0.002,0.004c-0.076,0.127-0.153,0.254-0.202,0.4
		c-0.438,1.027-0.25,2.264,0.604,3.091c1.166,1.13,2.882,1.011,4.043-0.046c0.563-0.513,0.923-1.395,0.892-2.152
		C53.355,72.609,52.889,71.866,52.122,71.329z"/>
</g>
<g>
	<path fill="#555655" d="M67.441,25.148l-28.91-2.403c0,0,2.819-8.515,3.065-11.473c0.245-2.956-1.66-8.534,0.636-10.411
		c2.481-2.029,24.056-0.235,24.334,2.929c0.211,2.364-1.905,4.021-1.836,8.91C64.814,18.371,67.441,25.148,67.441,25.148z"/>
</g>
<g id="eye_x5F_6_x5F_l_1_">
	<path fill="#555655" d="M44.382,31.888c-0.132-0.092-0.278-0.149-0.432-0.186c-0.003,0-0.005-0.001-0.008-0.001
		c-0.037-0.008-0.072-0.019-0.111-0.024c-0.516-0.127-1.083,0.023-1.504,0.384l0,0c-0.046,0.039-0.096,0.074-0.137,0.119
		c-0.011,0.012-0.018,0.024-0.029,0.036c-0.067,0.067-0.125,0.143-0.176,0.225c0.001,0,0.001,0-0.001,0.001
		c-0.043,0.074-0.089,0.148-0.119,0.235c-0.258,0.607-0.147,1.336,0.356,1.825c0.688,0.666,1.7,0.596,2.386-0.027
		c0.333-0.302,0.545-0.823,0.525-1.271C45.111,32.645,44.833,32.206,44.382,31.888z"/>
</g>
<g id="eye_x5F_6_x5F_r">
	<path fill="#555655" d="M57.52,32.042c-0.133-0.093-0.278-0.15-0.434-0.187c-0.003,0-0.005-0.001-0.008-0.002
		c-0.035-0.008-0.073-0.019-0.11-0.024c-0.517-0.127-1.081,0.023-1.505,0.383l0,0c-0.047,0.04-0.097,0.076-0.138,0.121
		c-0.011,0.01-0.019,0.023-0.029,0.036c-0.065,0.067-0.125,0.143-0.175,0.225c0,0,0,0-0.001,0.002
		c-0.045,0.073-0.091,0.148-0.119,0.235c-0.258,0.608-0.147,1.336,0.354,1.826c0.688,0.666,1.701,0.595,2.387-0.028
		c0.334-0.303,0.546-0.823,0.525-1.271C58.247,32.797,57.971,32.358,57.52,32.042z"/>
</g>
<g>
	<path fill="#303030" d="M71.109,25.351c-4.389-3.847-26.612-7.901-36.776-4.347c-0.213-0.026-0.434,0.04-0.607,0.218
		c-0.613,0.221-1.208,0.477-1.751,0.803c-0.908,0.547-1.36,1.396-1.345,2.406c-0.252,1.457,3.537,4.656,3.705,4.611
		c0.036-0.008,0.069-0.017,0.105-0.028c0.013-0.005,0.025-0.01,0.039-0.016c0.158-0.06,2.641-3.825,2.992-4.114
		c4.688-1.064,22.257-0.579,28.289,2.287c0.206,0.519,0.533,0.989,0.829,1.465c0.104,0.17,0.197,0.351,0.292,0.53
		c0.1,0.229,0.198,0.458,0.294,0.688c0.031,0.072,0.081,0.164,0.138,0.263c0.039,0.097,0.067,0.193,0.104,0.291
		c0.092,0.256,0.175,0.514,0.246,0.773c0,0.001,0,0.003,0.001,0.005l0.003,0.013c0.047,0.403,0.166,0.784,0.278,1.179
		c0.019,0.061,0.049,0.108,0.082,0.149c0.005,0.015,0.007,0.022,0.01,0.04c0.081,0.314,0.417,0.334,0.627,0.159
		c0.021-0.005,0.042-0.005,0.063-0.014c0.094-0.042,1.291-0.769,1.888-1.204C73.314,29.783,74.382,28.218,71.109,25.351z"/>
</g>
<g id="nose_x5F_6">
	<path fill="#EF4748" d="M48.773,36.915c-0.1-0.024-0.279,0.036-0.399,0.058c-4.735,0.875-9.117,2.886-13.559,4.665
		c-0.637,0.256-0.509,1.211,0.336,1.136c5.214-0.471,10.582-1.662,15.322-2.437C50.796,40.285,50.798,36.933,48.773,36.915z"/>
</g>
<g>
	<path fill="#247585" d="M73.975,66.07c-0.345-3.202-1.256-9.319-3.873-11.49c0,0-8.527,2.99-8.211,3.202
		c0.062,0.167,0.211,0.306,0.401,0.282c2.909,2.311,3.397,6.826,3.588,10.33c0.216,4.006-0.235,7.994-0.307,11.996
		c-0.003,0.207,0.179,0.414,0.394,0.401c3.273-0.192,8.271-1.446,8.352-3.981C74.425,73.361,74.384,69.813,73.975,66.07z"/>
</g>
<g>
	<path fill="#2E95A8" d="M65.807,45.643c-2.867,1.193-3.229,2.514-15.186,3.242c-11.631-1.007-12.126-1.829-15.185-3.242
		c-1.756-0.812-7.941,7.613-7.395,7.988c4.663,3.196,13.355,5.891,22.574,6.148l0,0c0.001,0,0.003,0,0.005,0s0.004,0,0.006,0l0,0
		c9.22-0.258,17.913-2.952,22.575-6.148C73.748,53.256,67.593,44.899,65.807,45.643z"/>
</g>
<path fill="#EAD7B5" d="M32.611,85.27v11.113H19.864V85.27c0-2.119,1.035-3.996,2.626-5.154c1.05-0.768,2.346-1.219,3.747-1.219
	c1.401,0,2.697,0.451,3.748,1.219C31.577,81.271,32.611,83.15,32.611,85.27z"/>
<path fill="#555655" d="M32.612,86.757H19.863V85.27h12.749V86.757z M26.237,78.896c-1.4,0-2.696,0.451-3.747,1.219
	c0.874,1.107,2.227,1.816,3.749,1.816c1.52,0,2.873-0.709,3.746-1.816C28.934,79.348,27.637,78.896,26.237,78.896z M28.007,85.373
	V37.4c0-0.719-0.792-1.301-1.77-1.301l0,0c-0.977,0-1.77,0.583-1.77,1.301v47.973"/>
<g>
	<path fill="#DD0707" d="M19.018,42.223l-1.05,3.18h-1.35l3.435-10.109h1.575l3.45,10.109h-1.395l-1.08-3.18H19.018z M22.333,41.202
		l-0.99-2.909c-0.225-0.66-0.375-1.261-0.525-1.846h-0.03c-0.15,0.601-0.315,1.216-0.51,1.83l-0.99,2.925H22.333z"/>
	<path fill="#DD0707" d="M27.988,45.402l-3.3-10.109h1.41l1.575,4.979c0.435,1.365,0.81,2.595,1.08,3.78h0.03
		c0.285-1.17,0.705-2.445,1.155-3.766l1.71-4.994h1.395l-3.615,10.109H27.988z"/>
	<path fill="#DD0707" d="M34.918,42.223l-1.05,3.18h-1.35l3.435-10.109h1.575l3.45,10.109h-1.395l-1.08-3.18H34.918z M38.233,41.202
		l-0.99-2.909c-0.225-0.66-0.375-1.261-0.525-1.846h-0.03c-0.15,0.601-0.315,1.216-0.51,1.83l-0.99,2.925H38.233z"/>
	<path fill="#DD0707" d="M43.768,35.293v10.109h-1.305V35.293H43.768z"/>
	<path fill="#DD0707" d="M46.048,35.293h1.305v9.015h4.319v1.095h-5.624V35.293z"/>
	<path fill="#DD0707" d="M54.763,42.223l-1.05,3.18h-1.35l3.435-10.109h1.575l3.449,10.109h-1.395l-1.08-3.18H54.763z
		 M58.078,41.202l-0.99-2.909c-0.225-0.66-0.375-1.261-0.525-1.846h-0.029c-0.15,0.601-0.315,1.216-0.511,1.83l-0.989,2.925H58.078z
		"/>
	<path fill="#DD0707" d="M62.308,35.428c0.569-0.12,1.47-0.21,2.385-0.21c1.305,0,2.146,0.225,2.774,0.735
		c0.525,0.39,0.84,0.989,0.84,1.784c0,0.976-0.645,1.83-1.709,2.221v0.029c0.959,0.24,2.084,1.035,2.084,2.535
		c0,0.87-0.344,1.53-0.854,2.025c-0.705,0.645-1.845,0.944-3.495,0.944c-0.899,0-1.59-0.06-2.024-0.12V35.428z M63.612,39.567h1.185
		c1.381,0,2.19-0.72,2.19-1.694c0-1.186-0.899-1.65-2.22-1.65c-0.6,0-0.945,0.045-1.155,0.09V39.567z M63.612,44.412
		c0.255,0.045,0.63,0.061,1.095,0.061c1.35,0,2.596-0.495,2.596-1.965c0-1.38-1.186-1.95-2.61-1.95h-1.08V44.412z"/>
	<path fill="#DD0707" d="M70.438,35.293h1.305v9.015h4.32v1.095h-5.625V35.293z"/>
	<path fill="#DD0707" d="M82.752,40.662h-3.93v3.646h4.38v1.095h-5.685V35.293h5.459v1.095h-4.154v3.195h3.93V40.662z"/>
	<path fill="#DD0707" d="M13.708,53.293v10.109h-1.305V53.293H13.708z"/>
	<path fill="#DD0707" d="M15.988,63.402V53.293h1.425l3.24,5.114c0.75,1.186,1.335,2.25,1.815,3.285l0.03-0.015
		c-0.12-1.351-0.15-2.58-0.15-4.155v-4.229h1.23v10.109h-1.32l-3.21-5.13c-0.705-1.125-1.38-2.28-1.89-3.375l-0.045,0.016
		c0.075,1.274,0.105,2.489,0.105,4.169v4.32H15.988z"/>
	<path fill="#DD0707" d="M29.038,53.413c0.63-0.105,1.455-0.195,2.505-0.195c1.29,0,2.235,0.3,2.835,0.84
		c0.555,0.48,0.885,1.215,0.885,2.115c0,0.915-0.27,1.635-0.78,2.16c-0.69,0.734-1.815,1.109-3.09,1.109
		c-0.39,0-0.75-0.015-1.05-0.09v4.05h-1.305V53.413z M30.343,58.287c0.285,0.075,0.645,0.105,1.08,0.105
		c1.575,0,2.535-0.765,2.535-2.16c0-1.335-0.945-1.979-2.385-1.979c-0.57,0-1.005,0.045-1.23,0.104V58.287z"/>
	<path fill="#DD0707" d="M37.018,53.428c0.66-0.135,1.605-0.21,2.505-0.21c1.395,0,2.295,0.255,2.925,0.825
		c0.51,0.45,0.795,1.14,0.795,1.92c0,1.335-0.84,2.22-1.905,2.58v0.045c0.78,0.27,1.245,0.989,1.485,2.04
		c0.33,1.409,0.57,2.385,0.78,2.774h-1.35c-0.165-0.285-0.39-1.155-0.675-2.415c-0.3-1.395-0.84-1.92-2.025-1.965h-1.23v4.38h-1.305
		V53.428z M38.323,58.032h1.335c1.395,0,2.28-0.765,2.28-1.92c0-1.305-0.945-1.875-2.325-1.89c-0.63,0-1.08,0.061-1.29,0.12V58.032z
		"/>
	<path fill="#DD0707" d="M50.322,58.662h-3.93v3.646h4.38v1.095h-5.685V53.293h5.459v1.095h-4.154v3.195h3.93V58.662z"/>
	<path fill="#DD0707" d="M60.987,58.963c-0.075-1.41-0.165-3.105-0.149-4.365h-0.045c-0.346,1.185-0.766,2.445-1.275,3.84
		l-1.785,4.905h-0.99l-1.635-4.815c-0.48-1.425-0.885-2.729-1.17-3.93h-0.029c-0.031,1.26-0.105,2.955-0.195,4.47l-0.271,4.335
		h-1.245l0.705-10.109h1.665l1.726,4.89c0.42,1.245,0.765,2.354,1.02,3.405h0.045c0.255-1.021,0.615-2.131,1.064-3.405l1.801-4.89
		h1.664l0.631,10.109h-1.275L60.987,58.963z"/>
	<path fill="#DD0707" d="M65.832,53.293v10.109h-1.305V53.293H65.832z"/>
	<path fill="#DD0707" d="M69.417,53.293v5.984c0,2.265,1.005,3.225,2.354,3.225c1.5,0,2.461-0.989,2.461-3.225v-5.984h1.319v5.895
		c0,3.104-1.635,4.38-3.825,4.38c-2.069,0-3.629-1.185-3.629-4.32v-5.954H69.417z"/>
	<path fill="#DD0707" d="M86.337,58.963c-0.075-1.41-0.165-3.105-0.149-4.365h-0.045c-0.346,1.185-0.766,2.445-1.275,3.84
		l-1.785,4.905h-0.99l-1.635-4.815c-0.48-1.425-0.885-2.729-1.17-3.93h-0.029c-0.031,1.26-0.105,2.955-0.195,4.47l-0.271,4.335
		h-1.245l0.705-10.109h1.665l1.726,4.89c0.42,1.245,0.765,2.354,1.02,3.405h0.045c0.255-1.021,0.615-2.131,1.064-3.405l1.801-4.89
		h1.664l0.631,10.109h-1.275L86.337,58.963z"/>
</g>
</svg>
