<?xml version="1.0" encoding="utf-8"?>
<!-- Generator: Adobe Illustrator 16.0.2, SVG Export Plug-In . SVG Version: 6.00 Build 0)  -->
<!DOCTYPE svg PUBLIC "-//W3C//DTD SVG 1.1//EN" "http://www.w3.org/Graphics/SVG/1.1/DTD/svg11.dtd">
<svg version="1.1" id="Layer_1" xmlns="http://www.w3.org/2000/svg" xmlns:xlink="http://www.w3.org/1999/xlink" x="0px" y="0px"
	 width="100px" height="100px" viewBox="0 0 100 100" enable-background="new 0 0 100 100" xml:space="preserve">
<path fill="#FFFFFF" d="M19.569,84.714c2.823,4.765,6.778,8.983,11.763,11.396c4.227,2.049,8.994,2.721,13.688,2.861
	c6.578,0.197,13.25-0.611,19.369-3.031c6.116-2.42,11.663-6.521,15.227-12.054c1.234-1.919,2.224-3.987,3.062-6.11
	c2.3-5.832,3.459-12.293,2.089-18.407c-0.762-3.403-2.275-6.591-3.932-9.66c-0.842-1.563-1.732-3.119-2.895-4.464
	c-1.654-1.917-3.795-3.337-5.906-4.733c-1.51-0.997-3.033-2.001-4.708-2.689c-1.819-0.747-3.775-1.101-5.724-1.38
	c-8.022-1.149-16.34-1.087-24.083,1.313c-7.744,2.399-14.885,7.297-19,14.283C12.714,61.889,13.74,74.876,19.569,84.714"/>
<path fill="#D7EFF4" d="M25.583,46.319c0.434,2.564-0.937,5.042-2.087,7.373c-2.027,4.108-3.489,8.465-4.947,12.809
	c-0.158,0.473-0.319,0.967-0.256,1.46c0.072,0.562,0.419,1.042,0.756,1.496c1.432,1.935,3.226,4.058,5.631,4.058
	c0.339,0,0.712-0.062,0.933-0.318c0.187-0.217,0.221-0.524,0.244-0.812c0.188-2.332,0.197-4.696,0.736-6.973
	c0.734-3.101,2.409-5.882,4.06-8.604c0.504-0.83,1.085-1.727,2.011-2.021c0.172-0.055,0.359-0.086,0.531-0.034
	c0.546,0.167,0.535,0.937,0.421,1.495c-1.262,6.236-1.006,12.664-0.744,19.021c0.029,0.689,0.087,1.448,0.576,1.934
	c0.561,0.556,1.523,0.521,2.192,0.104c0.668-0.422,1.092-1.138,1.409-1.861c1.302-2.987,1.143-6.377,1.011-9.631
	c-0.04-0.979-0.054-2.033,0.489-2.847c1.022-1.534,3.276-1.362,5.107-1.149c6.715,0.779,13.637-0.31,19.789-3.11
	c1.064-0.485,2.123-1.03,2.988-1.819c1.436-1.306,2.225-3.156,2.971-4.947c1.41-3.381,2.851-7.01,2.154-10.607
	c-5.511,2.159-10.555,5.501-16.262,7.058c-4.617,1.258-9.508,1.292-14.245,0.614c-1.212-0.173-2.435-0.398-3.539-0.93
	c-1.027-0.496-1.911-1.24-2.819-1.93c-2.257-1.715-4.924-3.188-7.754-3.027c-0.368,0.021-0.752,0.076-1.051,0.292
	C25.047,44.014,25.411,45.297,25.583,46.319"/>
<path fill="#048575" d="M43.645,78.186c0.522-0.256,1.039-0.564,1.375-1.039c0.708-1,0.408-2.369,0.067-3.547
	c-1.777-6.135-3.876-12.17-6.022-18.188c-0.45-1.259-0.917-2.548-1.767-3.583c-0.762-0.932-1.901-1.633-3.085-1.633
	c-0.135,0-0.271,0.009-0.406,0.028c0.488,8.453,0.141,16.957-1.031,25.341c-0.063,0.443-0.123,0.918,0.066,1.326
	c0.176,0.379,0.536,0.633,0.895,0.848C36.691,79.512,40.543,79.684,43.645,78.186z"/>
<path fill="#048575" d="M33.104,49.407c-0.171-0.417-0.558-0.701-0.928-0.963c-1.209-0.859-2.42-1.718-3.631-2.578
	c-4.591,6.702-7.924,14.261-9.775,22.171c1.953,2.408,4.638,4.216,7.605,5.117c2.863-7.239,5.114-14.723,6.719-22.342
	C33.192,50.347,33.286,49.848,33.104,49.407z"/>
<path fill="#00A695" d="M72.382,40.723c-0.067-0.531-0.362-1.005-0.687-1.433c-2.596-3.453-7.117-4.775-11.371-5.533
	c-4.557-0.813-9.188-1.219-13.815-1.219c-3.282,0-6.562,0.205-9.817,0.614c-2.442,0.308-4.988,0.781-6.908,2.321
	c-1.933,1.551-2.943,3.95-3.878,6.246c-0.317,0.779-0.641,1.6-0.541,2.434c0.064,0.546,0.307,1.053,0.565,1.539
	c2.601,4.908,7.104,8.705,12.246,10.808c5.142,2.104,10.883,2.566,16.374,1.717c2.097-0.322,4.175-0.839,6.099-1.73
	c5.668-2.62,9.437-8.26,11.461-14.167C72.285,41.803,72.452,41.263,72.382,40.723z"/>
<path fill="#029381" d="M30.113,34.528c1.922-2.634,5.296-3.682,8.433-4.57c1.495-0.423,2.995-0.848,4.532-1.069
	c1.607-0.23,3.237-0.236,4.861-0.242c5.118-0.017,10.549,0.053,14.87,2.795c2.403,1.526,4.121,3.314,6.149,5.312
	c-0.252,0.204-3.326,8.457-18.208,10.746c-3.73,0.574-7.514,1.414-11.208,0.644c-3.694-0.771-7.231-2.999-8.84-6.412
	c-0.549-1.167-0.86-2.43-1.168-3.682c-0.134-0.541-0.267-1.093-0.22-1.647C29.374,35.718,29.707,35.084,30.113,34.528"/>
<path fill="#FFFFFF" d="M67.908,38.288c3.697-3.749,4.617-9.674,3.912-14.892c-0.703-5.218-3.539-10.118-7.715-13.325
	C60.32,7.166,55.602,5.683,50.87,5.074c-1.947-0.25-3.919-0.362-5.873-0.175c-6.844,0.654-13.172,5.247-15.914,11.551
	c-1.311,3.015-1.834,6.325-1.923,9.61c-0.067,2.504,0.119,5.051,0.959,7.41c2.051,5.753,7.814,9.584,13.8,10.8
	C47.906,45.485,61.236,45.05,67.908,38.288"/>
<path fill="#00A695" d="M73.55,29.283c0.415-1.981,0.19-4.038-0.155-6.031c-0.75-4.31-2.062-8.522-3.895-12.495
	c-0.518-1.123-1.085-2.242-1.909-3.166c-0.827-0.929-1.882-1.626-2.967-2.238c-3.926-2.216-8.354-3.425-12.819-4.05
	C50.566,1.13,49.313,1,48.063,1c-0.701,0-1.401,0.041-2.097,0.138c-1.382,0.193-4.389,1.362-5.652,1.957
	c-3.198,1.508-5.969,3.852-5.969,3.852c-2.525,1.847-4.555,3.946-6.274,6.603c-1.834,2.835-3.183,6.054-3.417,9.423
	c-0.232,3.369,0.74,6.897,3.042,9.37c0.048-5.42,3.966-10.264,8.81-12.695c4.844-2.431,10.46-2.814,15.873-2.539
	c3.227,0.165,6.495,0.56,9.459,1.843c2.965,1.283,5.268,3.714,6.758,6.581c2.536,4.892,1.805,6.968,2.053,8.566
	C72.45,33.179,73.137,31.264,73.55,29.283z"/>
<path fill="#565656" d="M51.716,64.693c1.377,0.185,2.472,1.584,2.317,2.964c-0.155,1.38-1.529,2.503-2.913,2.381
	c-1.384-0.125-2.537-1.478-2.443-2.86c0.094-1.387,1.42-2.57,2.808-2.505"/>
<path fill="#D7EFF4" d="M28.782,31.766c-0.395,1.683,0.549,3.381,1.614,4.726c2.868,3.623,6.942,6.227,11.384,7.277
	c2.849,0.673,5.818,0.906,8.727,0.598c5.285-0.562,9.081-1.142,13.505-3.038c2.178-0.934,5.359-4.261,6.088-6.555
	c-1.881,2.042-5.371,4.432-7.996,5.25c-4.682,1.46-9.61,2.25-14.482,1.779C42.75,41.333,34.375,39.813,28.782,31.766"/>
<path fill="#D7EFF4" d="M67.508,93.534c9.279-4.077,15.66-15.836,16.54-23.197c-1.709,3.662-3.452,7.378-6.097,10.437
	c-5.1,5.896-12.958,8.66-20.652,9.896c-5.258,0.845-10.657,1.089-15.902,0.168c-2.241-0.392-4.444-0.995-6.573-1.8
	c-0.886-0.334-1.773-0.688-2.587-1.174c-10.767-6.436-11.999-7.741-16.349-14.266c1.342,5.603,2.618,7.494,4.205,10.838
	c1.257,2.649,3.32,5.037,5.453,7.049c2.442,2.302,7.027,4.732,10.279,5.565C46.8,99.859,57.135,98.092,67.508,93.534"/>
<path fill="none" stroke="#565656" stroke-width="0.87" stroke-linecap="round" stroke-miterlimit="10" d="M46.961,33.926
	c0.29,0.815,0.685,1.736,1.514,1.987c0.712,0.218,1.497-0.182,1.955-0.769c0.458-0.586,0.663-1.328,0.855-2.046"/>
<path fill="#565656" d="M50.054,81.078c-1.187,0.219-2.147,1.326-2.195,2.531c-0.012,0.295,0.027,0.599,0.156,0.863
	c0.203,0.418,0.613,0.711,1.053,0.857c1.198,0.4,2.69-0.355,2.969-1.588c0.279-1.233-0.857-2.604-2.114-2.459"/>
<path fill="#05675B" d="M36.506,19.647c4.844-2.431,10.459-2.814,15.873-2.539c3.227,0.165,6.495,0.561,9.46,1.843
	c2.966,1.282,5.218,3.74,6.757,6.581c2.266,4.185,1.805,6.968,2.053,8.566c1.803-0.92,2.488-2.834,2.901-4.815
	c0.038-0.178,0.063-0.357,0.091-0.536c-0.396-3.441-1.701-6.78-3.793-9.542c-0.354-0.466-0.726-0.915-1.13-1.336
	c-0.723-0.754-1.541-1.412-2.395-2.018c-2.535-1.8-5.394-3.145-8.397-3.948c-5.604-1.5-11.574-1.096-17.235,0.176
	c-3.258,0.733-6.55,1.801-9.093,3.967c-1.591,1.355-2.82,3.083-3.925,4.857c-1.107,1.778-2.118,3.656-2.803,5.627
	c0.409,2.16,1.334,4.209,2.826,5.812C27.745,26.923,31.662,22.079,36.506,19.647"/>
<path id="eye_x5F_09_x5F_l" fill="#565656" d="M41.989,23.725c0,1.192-0.687,2.16-1.535,2.16c-0.849,0-1.536-0.967-1.536-2.16
	s0.687-2.16,1.536-2.16C41.302,21.565,41.989,22.532,41.989,23.725"/>
<path id="eye_x5F_09_x5F_r" fill="#565656" d="M57.841,23.725c0,1.192-0.688,2.16-1.536,2.16c-0.849,0-1.535-0.967-1.535-2.16
	s0.688-2.16,1.535-2.16S57.841,22.532,57.841,23.725"/>
<g>
	<path fill="#DD0707" d="M19.018,42.223l-1.05,3.18h-1.35l3.435-10.109h1.575l3.45,10.109h-1.395l-1.08-3.18H19.018z M22.333,41.202
		l-0.99-2.909c-0.225-0.66-0.375-1.261-0.525-1.846h-0.03c-0.15,0.601-0.315,1.216-0.51,1.83l-0.99,2.925H22.333z"/>
	<path fill="#DD0707" d="M27.988,45.402l-3.3-10.109h1.41l1.575,4.979c0.435,1.365,0.81,2.595,1.08,3.78h0.03
		c0.285-1.17,0.705-2.445,1.155-3.766l1.71-4.994h1.395l-3.615,10.109H27.988z"/>
	<path fill="#DD0707" d="M34.918,42.223l-1.05,3.18h-1.35l3.435-10.109h1.575l3.45,10.109h-1.395l-1.08-3.18H34.918z M38.233,41.202
		l-0.99-2.909c-0.225-0.66-0.375-1.261-0.525-1.846h-0.03c-0.15,0.601-0.315,1.216-0.51,1.83l-0.99,2.925H38.233z"/>
	<path fill="#DD0707" d="M43.768,35.293v10.109h-1.305V35.293H43.768z"/>
	<path fill="#DD0707" d="M46.048,35.293h1.305v9.015h4.319v1.095h-5.624V35.293z"/>
	<path fill="#DD0707" d="M54.763,42.223l-1.05,3.18h-1.35l3.435-10.109h1.575l3.449,10.109h-1.395l-1.08-3.18H54.763z
		 M58.078,41.202l-0.99-2.909c-0.225-0.66-0.375-1.261-0.525-1.846h-0.029c-0.15,0.601-0.315,1.216-0.511,1.83l-0.989,2.925H58.078z
		"/>
	<path fill="#DD0707" d="M62.308,35.428c0.569-0.12,1.47-0.21,2.385-0.21c1.305,0,2.146,0.225,2.774,0.735
		c0.525,0.39,0.84,0.989,0.84,1.784c0,0.976-0.645,1.83-1.709,2.221v0.029c0.959,0.24,2.084,1.035,2.084,2.535
		c0,0.87-0.344,1.53-0.854,2.025c-0.705,0.645-1.845,0.944-3.495,0.944c-0.899,0-1.59-0.06-2.024-0.12V35.428z M63.612,39.567h1.185
		c1.381,0,2.19-0.72,2.19-1.694c0-1.186-0.899-1.65-2.22-1.65c-0.6,0-0.945,0.045-1.155,0.09V39.567z M63.612,44.412
		c0.255,0.045,0.63,0.061,1.095,0.061c1.35,0,2.596-0.495,2.596-1.965c0-1.38-1.186-1.95-2.61-1.95h-1.08V44.412z"/>
	<path fill="#DD0707" d="M70.438,35.293h1.305v9.015h4.32v1.095h-5.625V35.293z"/>
	<path fill="#DD0707" d="M82.752,40.662h-3.93v3.646h4.38v1.095h-5.685V35.293h5.459v1.095h-4.154v3.195h3.93V40.662z"/>
	<path fill="#DD0707" d="M13.708,53.293v10.109h-1.305V53.293H13.708z"/>
	<path fill="#DD0707" d="M15.988,63.402V53.293h1.425l3.24,5.114c0.75,1.186,1.335,2.25,1.815,3.285l0.03-0.015
		c-0.12-1.351-0.15-2.58-0.15-4.155v-4.229h1.23v10.109h-1.32l-3.21-5.13c-0.705-1.125-1.38-2.28-1.89-3.375l-0.045,0.016
		c0.075,1.274,0.105,2.489,0.105,4.169v4.32H15.988z"/>
	<path fill="#DD0707" d="M29.038,53.413c0.63-0.105,1.455-0.195,2.505-0.195c1.29,0,2.235,0.3,2.835,0.84
		c0.555,0.48,0.885,1.215,0.885,2.115c0,0.915-0.27,1.635-0.78,2.16c-0.69,0.734-1.815,1.109-3.09,1.109
		c-0.39,0-0.75-0.015-1.05-0.09v4.05h-1.305V53.413z M30.343,58.287c0.285,0.075,0.645,0.105,1.08,0.105
		c1.575,0,2.535-0.765,2.535-2.16c0-1.335-0.945-1.979-2.385-1.979c-0.57,0-1.005,0.045-1.23,0.104V58.287z"/>
	<path fill="#DD0707" d="M37.018,53.428c0.66-0.135,1.605-0.21,2.505-0.21c1.395,0,2.295,0.255,2.925,0.825
		c0.51,0.45,0.795,1.14,0.795,1.92c0,1.335-0.84,2.22-1.905,2.58v0.045c0.78,0.27,1.245,0.989,1.485,2.04
		c0.33,1.409,0.57,2.385,0.78,2.774h-1.35c-0.165-0.285-0.39-1.155-0.675-2.415c-0.3-1.395-0.84-1.92-2.025-1.965h-1.23v4.38h-1.305
		V53.428z M38.323,58.032h1.335c1.395,0,2.28-0.765,2.28-1.92c0-1.305-0.945-1.875-2.325-1.89c-0.63,0-1.08,0.061-1.29,0.12V58.032z
		"/>
	<path fill="#DD0707" d="M50.322,58.662h-3.93v3.646h4.38v1.095h-5.685V53.293h5.459v1.095h-4.154v3.195h3.93V58.662z"/>
	<path fill="#DD0707" d="M60.987,58.963c-0.075-1.41-0.165-3.105-0.149-4.365h-0.045c-0.346,1.185-0.766,2.445-1.275,3.84
		l-1.785,4.905h-0.99l-1.635-4.815c-0.48-1.425-0.885-2.729-1.17-3.93h-0.029c-0.031,1.26-0.105,2.955-0.195,4.47l-0.271,4.335
		h-1.245l0.705-10.109h1.665l1.726,4.89c0.42,1.245,0.765,2.354,1.02,3.405h0.045c0.255-1.021,0.615-2.131,1.064-3.405l1.801-4.89
		h1.664l0.631,10.109h-1.275L60.987,58.963z"/>
	<path fill="#DD0707" d="M65.832,53.293v10.109h-1.305V53.293H65.832z"/>
	<path fill="#DD0707" d="M69.417,53.293v5.984c0,2.265,1.005,3.225,2.354,3.225c1.5,0,2.461-0.989,2.461-3.225v-5.984h1.319v5.895
		c0,3.104-1.635,4.38-3.825,4.38c-2.069,0-3.629-1.185-3.629-4.32v-5.954H69.417z"/>
	<path fill="#DD0707" d="M86.337,58.963c-0.075-1.41-0.165-3.105-0.149-4.365h-0.045c-0.346,1.185-0.766,2.445-1.275,3.84
		l-1.785,4.905h-0.99l-1.635-4.815c-0.48-1.425-0.885-2.729-1.17-3.93h-0.029c-0.031,1.26-0.105,2.955-0.195,4.47l-0.271,4.335
		h-1.245l0.705-10.109h1.665l1.726,4.89c0.42,1.245,0.765,2.354,1.02,3.405h0.045c0.255-1.021,0.615-2.131,1.064-3.405l1.801-4.89
		h1.664l0.631,10.109h-1.275L86.337,58.963z"/>
</g>
</svg>
