<?xml version="1.0" encoding="utf-8"?>
<!-- Generator: Adobe Illustrator 16.0.2, SVG Export Plug-In . SVG Version: 6.00 Build 0)  -->
<!DOCTYPE svg PUBLIC "-//W3C//DTD SVG 1.1//EN" "http://www.w3.org/Graphics/SVG/1.1/DTD/svg11.dtd">
<svg version="1.1" id="Layer_1" xmlns="http://www.w3.org/2000/svg" xmlns:xlink="http://www.w3.org/1999/xlink" x="0px" y="0px"
	 width="100px" height="100px" viewBox="0 0 100 100" enable-background="new 0 0 100 100" xml:space="preserve">
<rect x="46.372" y="87.5" fill="#913B1F" width="7" height="12.5"/>
<polygon fill="#F2F2F2" points="49.872,0 30.872,32.5 68.872,32.5 "/>
<polygon fill="#F2F2F2" points="24.872,50 74.872,50 49.872,7.5 "/>
<polygon fill="#F2F2F2" points="18.872,70 80.872,70 49.872,17.5 "/>
<polygon fill="#F2F2F2" points="86.872,91 12.872,91 49.872,30 "/>
<g>
	<path fill="#FFFFFF" d="M67.052,32.5h2.64c0.707-0.287,1.182-0.793,1.182-1.375c0-0.897-1.119-1.625-2.5-1.625
		c-0.832,0-1.563,0.267-2.018,0.673c-0.426-0.544-1.316-0.923-2.357-0.923c-0.561,0-1.076,0.11-1.503,0.295
		C61.982,28.624,61,28,59.872,28c-1.156,0-2.158,0.654-2.658,1.612c-0.42-0.229-0.924-0.362-1.467-0.362
		c-0.71,0-1.353,0.23-1.824,0.601c-0.479-0.499-1.297-0.832-2.229-0.849c-0.366-0.879-1.265-1.502-2.32-1.502
		c-1.38,0-2.5,1.063-2.5,2.375c0,0.001,0,0.002,0,0.002c-0.35-0.081-0.729-0.127-1.125-0.127c-0.56,0-1.084,0.09-1.539,0.244
		c-0.407-0.449-1.076-0.744-1.836-0.744c-1.243,0-2.25,0.783-2.25,1.75c0,0.007,0.002,0.013,0.002,0.02
		C40.041,31.012,39.958,31,39.872,31c-0.221,0-0.429,0.033-0.628,0.083c-0.352-1.063-1.393-1.833-2.622-1.833
		c-1.078,0-2.007,0.593-2.458,1.454c0.526,0.451,0.878,1.083,0.945,1.796H48.51H67.052z"/>
	<line fill="none" x1="50.254" y1="32.5" x2="52.988" y2="32.5"/>
	<path fill="#FFFFFF" d="M37.372,32.5c-0.051-0.201,0.5-0.409,0.5-0.625c0-0.422-3.894-0.818-3.708-1.171
		C33.655,30.268,32.984,30,32.247,30c-1.5,0-2.729,1.099-2.862,2.5H37.372z"/>
</g>
<g>
	<path fill="#FFFFFF" d="M70.73,50h3.211c0.856-0.349,1.437-0.965,1.437-1.674c0-1.092-1.364-1.978-3.045-1.978
		c-1.008,0-1.897,0.323-2.457,0.817c-0.515-0.662-1.599-1.12-2.869-1.12c-0.682,0-1.305,0.132-1.827,0.356
		c-0.617-1.119-1.82-1.879-3.195-1.879c-1.401,0-2.623,0.795-3.229,1.96c-0.508-0.277-1.126-0.438-1.784-0.438
		c-0.867,0-1.65,0.278-2.219,0.729c-0.585-0.605-1.578-1.013-2.716-1.033c-0.445-1.068-1.546-1.828-2.826-1.828
		c-1.685,0-3.046,1.296-3.046,2.89c0,0.001,0,0.002,0,0.007c-0.424-0.099-0.886-0.158-1.367-0.158c-0.683,0-1.321,0.111-1.873,0.297
		c-0.495-0.546-1.31-0.902-2.237-0.902c-1.511,0-2.739,0.95-2.739,2.128c0,0.007,0.003,0.018,0.003,0.023
		c-0.102-0.008-0.201-0.023-0.306-0.023c-0.269,0-0.526,0.043-0.764,0.102c-0.431-1.292-1.696-2.229-3.194-2.229
		c-1.311,0-2.443,0.721-2.991,1.767c0.641,0.553,1.067,1.321,1.152,2.188h16.31H70.73V50z"/>
	<line fill="none" x1="50.28" y1="50" x2="53.613" y2="50"/>
	<path fill="#FFFFFF" d="M34.6,50c-0.061-0.244,0.61-0.497,0.61-0.762c0-0.514-4.738-0.994-4.514-1.426
		c-0.619-0.529-1.435-0.854-2.334-0.854c-1.826,0-3.32,1.336-3.482,3.041L34.6,50L34.6,50z"/>
</g>
<g>
	<path fill="#FFFFFF" d="M75.425,70h3.942c1.047-0.428,1.761-1.189,1.761-2.057c0-1.338-1.68-2.426-3.741-2.426
		c-1.232,0-2.324,0.401-3.019,1.008c-0.626-0.819-1.958-1.379-3.521-1.379c-0.84,0-1.598,0.166-2.244,0.436
		c-0.752-1.377-2.235-2.307-3.926-2.307c-1.716,0-3.219,0.977-3.959,2.41c-0.621-0.345-1.385-0.539-2.188-0.539
		c-1.07,0-2.032,0.336-2.727,0.897c-0.719-0.752-1.938-1.249-3.332-1.271c-0.547-1.314-1.906-2.244-3.472-2.244
		c-2.071,0-3.742,1.59-3.742,3.541c0,0.003,0,0.003,0,0.009c-0.52-0.121-1.088-0.192-1.676-0.192c-0.84,0-1.625,0.135-2.3,0.364
		c-0.607-0.67-1.607-1.104-2.748-1.104c-1.854,0-3.361,1.164-3.361,2.611c0,0.008,0.002,0.018,0.002,0.023
		c-0.123-0.008-0.246-0.023-0.372-0.023c-0.331,0-0.65,0.055-0.938,0.123c-0.532-1.583-2.084-2.734-3.924-2.734
		c-1.608,0-2.999,0.879-3.67,2.172c0.786,0.676,1.309,1.613,1.416,2.682h20.021H75.425z"/>
	<line fill="none" x1="50.314" y1="70" x2="54.412" y2="70"/>
	<path fill="#FFFFFF" d="M31.062,70c-0.072-0.301,0.75-0.609,0.75-0.93c0-0.639-5.816-1.23-5.541-1.752
		c-0.76-0.652-1.76-1.057-2.868-1.057c-2.241,0-4.072,1.641-4.274,3.737L31.062,70L31.062,70z"/>
</g>
<g>
	<path fill="#FFFFFF" d="M80.323,91h4.704c1.246-0.51,2.101-1.424,2.101-2.455c0-1.596-2.008-2.895-4.469-2.895
		c-1.468,0-2.771,0.483-3.604,1.207c-0.742-0.983-2.332-1.647-4.199-1.647c-1.004,0-1.901,0.201-2.678,0.517
		c-0.894-1.646-2.67-2.75-4.688-2.75c-2.045,0-3.84,1.162-4.721,2.877c-0.738-0.414-1.654-0.644-2.61-0.644
		c-1.281,0-2.431,0.394-3.253,1.073c-0.859-0.904-2.313-1.495-3.977-1.516c-0.652-1.574-2.281-2.679-4.146-2.679
		c-2.476,0-4.469,1.894-4.469,4.222c0,0.002,0,0.002,0,0.008c-0.62-0.146-1.299-0.229-1.999-0.229c-1.004,0-1.941,0.157-2.745,0.436
		c-0.725-0.799-1.917-1.315-3.281-1.315c-2.211,0-4.012,1.388-4.012,3.115c0,0.007,0.002,0.017,0.002,0.022
		c-0.146-0.008-0.293-0.022-0.442-0.022c-0.396,0-0.779,0.065-1.12,0.146c-0.638-1.888-2.488-3.262-4.686-3.262
		c-1.919,0-3.579,1.042-4.379,2.593c0.938,0.806,1.561,1.919,1.691,3.197H47.24L80.323,91L80.323,91z"/>
	<line fill="none" x1="50.349" y1="91" x2="55.244" y2="91"/>
	<path fill="#FFFFFF" d="M27.371,91c-0.083-0.359,0.896-0.727,0.896-1.105c0-0.767-6.941-1.477-6.613-2.092
		c-0.906-0.781-2.1-1.267-3.425-1.267c-2.674,0-4.857,1.956-5.1,4.464H27.371z"/>
</g>
<g>
	<path fill="#DD0707" d="M19.018,42.223l-1.05,3.18h-1.35l3.435-10.109h1.575l3.45,10.109h-1.395l-1.08-3.18H19.018z M22.333,41.202
		l-0.99-2.909c-0.225-0.66-0.375-1.261-0.525-1.846h-0.03c-0.15,0.601-0.315,1.216-0.51,1.83l-0.99,2.925H22.333z"/>
	<path fill="#DD0707" d="M27.988,45.402l-3.3-10.109h1.41l1.575,4.979c0.435,1.365,0.81,2.595,1.08,3.78h0.03
		c0.285-1.17,0.705-2.445,1.155-3.766l1.71-4.994h1.395l-3.615,10.109H27.988z"/>
	<path fill="#DD0707" d="M34.918,42.223l-1.05,3.18h-1.35l3.435-10.109h1.575l3.45,10.109h-1.395l-1.08-3.18H34.918z M38.233,41.202
		l-0.99-2.909c-0.225-0.66-0.375-1.261-0.525-1.846h-0.03c-0.15,0.601-0.315,1.216-0.51,1.83l-0.99,2.925H38.233z"/>
	<path fill="#DD0707" d="M43.768,35.293v10.109h-1.305V35.293H43.768z"/>
	<path fill="#DD0707" d="M46.048,35.293h1.305v9.015h4.319v1.095h-5.624V35.293z"/>
	<path fill="#DD0707" d="M54.763,42.223l-1.05,3.18h-1.35l3.435-10.109h1.575l3.449,10.109h-1.395l-1.08-3.18H54.763z
		 M58.078,41.202l-0.99-2.909c-0.225-0.66-0.375-1.261-0.525-1.846h-0.029c-0.15,0.601-0.315,1.216-0.511,1.83l-0.989,2.925H58.078z
		"/>
	<path fill="#DD0707" d="M62.308,35.428c0.569-0.12,1.47-0.21,2.385-0.21c1.305,0,2.146,0.225,2.774,0.735
		c0.525,0.39,0.84,0.989,0.84,1.784c0,0.976-0.645,1.83-1.709,2.221v0.029c0.959,0.24,2.084,1.035,2.084,2.535
		c0,0.87-0.344,1.53-0.854,2.025c-0.705,0.645-1.845,0.944-3.495,0.944c-0.899,0-1.59-0.06-2.024-0.12V35.428z M63.612,39.567h1.185
		c1.381,0,2.19-0.72,2.19-1.694c0-1.186-0.899-1.65-2.22-1.65c-0.6,0-0.945,0.045-1.155,0.09V39.567z M63.612,44.412
		c0.255,0.045,0.63,0.061,1.095,0.061c1.35,0,2.596-0.495,2.596-1.965c0-1.38-1.186-1.95-2.61-1.95h-1.08V44.412z"/>
	<path fill="#DD0707" d="M70.438,35.293h1.305v9.015h4.32v1.095h-5.625V35.293z"/>
	<path fill="#DD0707" d="M82.752,40.662h-3.93v3.646h4.38v1.095h-5.685V35.293h5.459v1.095h-4.154v3.195h3.93V40.662z"/>
	<path fill="#DD0707" d="M13.708,53.293v10.109h-1.305V53.293H13.708z"/>
	<path fill="#DD0707" d="M15.988,63.402V53.293h1.425l3.24,5.114c0.75,1.186,1.335,2.25,1.815,3.285l0.03-0.015
		c-0.12-1.351-0.15-2.58-0.15-4.155v-4.229h1.23v10.109h-1.32l-3.21-5.13c-0.705-1.125-1.38-2.28-1.89-3.375l-0.045,0.016
		c0.075,1.274,0.105,2.489,0.105,4.169v4.32H15.988z"/>
	<path fill="#DD0707" d="M29.038,53.413c0.63-0.105,1.455-0.195,2.505-0.195c1.29,0,2.235,0.3,2.835,0.84
		c0.555,0.48,0.885,1.215,0.885,2.115c0,0.915-0.27,1.635-0.78,2.16c-0.69,0.734-1.815,1.109-3.09,1.109
		c-0.39,0-0.75-0.015-1.05-0.09v4.05h-1.305V53.413z M30.343,58.287c0.285,0.075,0.645,0.105,1.08,0.105
		c1.575,0,2.535-0.765,2.535-2.16c0-1.335-0.945-1.979-2.385-1.979c-0.57,0-1.005,0.045-1.23,0.104V58.287z"/>
	<path fill="#DD0707" d="M37.018,53.428c0.66-0.135,1.605-0.21,2.505-0.21c1.395,0,2.295,0.255,2.925,0.825
		c0.51,0.45,0.795,1.14,0.795,1.92c0,1.335-0.84,2.22-1.905,2.58v0.045c0.78,0.27,1.245,0.989,1.485,2.04
		c0.33,1.409,0.57,2.385,0.78,2.774h-1.35c-0.165-0.285-0.39-1.155-0.675-2.415c-0.3-1.395-0.84-1.92-2.025-1.965h-1.23v4.38h-1.305
		V53.428z M38.323,58.032h1.335c1.395,0,2.28-0.765,2.28-1.92c0-1.305-0.945-1.875-2.325-1.89c-0.63,0-1.08,0.061-1.29,0.12V58.032z
		"/>
	<path fill="#DD0707" d="M50.322,58.662h-3.93v3.646h4.38v1.095h-5.685V53.293h5.459v1.095h-4.154v3.195h3.93V58.662z"/>
	<path fill="#DD0707" d="M60.987,58.963c-0.075-1.41-0.165-3.105-0.149-4.365h-0.045c-0.346,1.185-0.766,2.445-1.275,3.84
		l-1.785,4.905h-0.99l-1.635-4.815c-0.48-1.425-0.885-2.729-1.17-3.93h-0.029c-0.031,1.26-0.105,2.955-0.195,4.47l-0.271,4.335
		h-1.245l0.705-10.109h1.665l1.726,4.89c0.42,1.245,0.765,2.354,1.02,3.405h0.045c0.255-1.021,0.615-2.131,1.064-3.405l1.801-4.89
		h1.664l0.631,10.109h-1.275L60.987,58.963z"/>
	<path fill="#DD0707" d="M65.832,53.293v10.109h-1.305V53.293H65.832z"/>
	<path fill="#DD0707" d="M69.417,53.293v5.984c0,2.265,1.005,3.225,2.354,3.225c1.5,0,2.461-0.989,2.461-3.225v-5.984h1.319v5.895
		c0,3.104-1.635,4.38-3.825,4.38c-2.069,0-3.629-1.185-3.629-4.32v-5.954H69.417z"/>
	<path fill="#DD0707" d="M86.337,58.963c-0.075-1.41-0.165-3.105-0.149-4.365h-0.045c-0.346,1.185-0.766,2.445-1.275,3.84
		l-1.785,4.905h-0.99l-1.635-4.815c-0.48-1.425-0.885-2.729-1.17-3.93h-0.029c-0.031,1.26-0.105,2.955-0.195,4.47l-0.271,4.335
		h-1.245l0.705-10.109h1.665l1.726,4.89c0.42,1.245,0.765,2.354,1.02,3.405h0.045c0.255-1.021,0.615-2.131,1.064-3.405l1.801-4.89
		h1.664l0.631,10.109h-1.275L86.337,58.963z"/>
</g>
</svg>
