<?xml version="1.0" encoding="utf-8"?>
<!-- Generator: Adobe Illustrator 16.0.2, SVG Export Plug-In . SVG Version: 6.00 Build 0)  -->
<!DOCTYPE svg PUBLIC "-//W3C//DTD SVG 1.1//EN" "http://www.w3.org/Graphics/SVG/1.1/DTD/svg11.dtd">
<svg version="1.1" id="Layer_1" xmlns="http://www.w3.org/2000/svg" xmlns:xlink="http://www.w3.org/1999/xlink" x="0px" y="0px"
	 width="100px" height="100px" viewBox="0 0 100 100" enable-background="new 0 0 100 100" xml:space="preserve">
<g>
	<g>
		<path fill="#DEDDDD" d="M47.326,80.327c-2.227,2.8-3.65-0.64-3.65-0.64c-0.356,1.875-1.124,2.758-3.64,2.758
			c-1.247,0-1.966-5.581-1.966-5.581s-0.564,2.163-1.876,2.823c-1.312,0.649-1.552-1.525-1.552-1.525
			c-3.938,2.613-3.157-3.078-3.157-3.078c-7.866,2.41-2.068-3.057-2.068-3.057c-6.787,0.988-3.073-0.983-3.073-0.983l-3.324,0.358
			c-4.525-1.455,2.455-2.213,2.455-2.213c1.423-2.513,6.599-4.199,6.599-4.199c-1.02,0.3-2.264-1.08-2.264-1.08
			c-6.989-0.213-2.395-3.418-2.395-3.418c-6.494-0.378-2.114-1.979-2.114-1.979c-2.337-0.861-0.371-1.666-0.371-1.666
			c2.046-0.885,6.929,0.721,8.095-1.18c1.163-1.898,4.877-1.227,2.764-1.384c-2.117-0.138-1.16-1.513-1.16-1.513
			s-2.046,0.927-4.16,0.711c-2.117-0.213-3.054-0.071-3.054-1.301c0-1.256,5.973-2.404,5.973-2.404
			c3.353-0.146,6.881-3.506,5.501-2.703c-1.385,0.8-1.319-0.226-1.319-0.226c-1.377,0.657-1.892-0.315-1.892-0.315
			c-1.348,0.681-1.672,1.455-4.617,0.354c-2.939-1.082,2.396-3.456,2.396-3.456c6.086-1.755,6.847-4.191,6.847-4.191
			c-0.51,0.476-3.172,1.357-4.075,0.809c-0.919-0.552,0.579-1.896,0.358-1.721c-0.211,0.184-0.656,0.912-2.695,0.866
			c-2.034-0.02-4.145-1.628-1.784-2.209c2.364-0.583,6.487-2.296,7.033-3.173c0.543-0.879,0.578-1.27,0.223-1.021
			c-0.375,0.255-4.047,0.875-5.033,0.191c-0.981-0.7,2.151-1.974,4.008-2.267c1.862-0.296,2.764-1.925,2.699-3.059
			c-0.075-1.128,2.982-2.485,2.746-2.204c-0.24,0.26,0.092-0.967-0.745-0.487c-0.833,0.467-2.045,0.839-3.061,1.276
			c-1.018,0.441-3.202,0.173-3.531-0.555c-0.332-0.722,0.796-1.743,3.174-2.577c2.367-0.85,5.057-2.411,5.057-2.411
			s1.31-1.888,0.657-0.949C44.68,20.7,43,19.609,43.147,19.897c0.147,0.294-3.716,1.095-4.221,0.434
			c-0.516-0.652,3.282-1.379,3.381-2.108c0.097-0.729,1.859-1.308,2.076-1.308c0.22,0,1.866-1.269,1.2-1.171
			c-0.658,0.105-1.31,0.547-2.935-1.096c-1.652-1.633,3.273-0.76,2.2-1.535c-1.063-0.76,1.947-1.419,0.526-2.068
			c-1.425-0.656,0.439-1.637,1.076-1.856C47.087,8.966,47.338,7,46.688,6.128c-0.662-0.879,0.211-1.318,0.763-1.641
			C47.995,4.162,48.87,0,48.87,0s0.604,0.171,0.275,1.428c0,0,0.279,2.905,0.857,3.254c0.574,0.334,1.505,0.788,0.811,1.707
			C50.122,7.3,50.377,9.35,51.05,9.567c0.675,0.234,2.636,1.256,1.147,1.944c-1.504,0.679,1.675,1.367,0.541,2.163
			c-1.127,0.803,4.062-0.114,2.33,1.594c-1.719,1.719-2.399,1.259-3.106,1.15c-0.687-0.118,1.04,1.208,1.271,1.208
			c0.231,0,2.092,0.609,2.193,1.369c0.112,0.761,4.098,1.529,3.568,2.205c-0.546,0.689-4.614-0.154-4.452-0.455
			c0.149-0.312-1.622,0.836-2.315-0.16c-0.688-0.98,0.693,0.996,0.693,0.996s2.852,1.63,5.336,2.511
			c2.514,0.867,3.705,1.936,3.342,2.689c-0.33,0.764-2.647,1.025-3.723,0.576c-1.075-0.471-2.337-0.851-3.227-1.33
			c-0.889-0.493-0.527,0.788-0.789,0.507c-0.243-0.289,2.983,1.123,2.908,2.298c-0.078,1.175,0.879,2.885,2.852,3.192
			c1.954,0.305,5.256,1.636,4.199,2.356c-1.019,0.718-4.896,0.071-5.275-0.194c-0.389-0.267-0.361,0.154,0.218,1.063
			c0.572,0.912,4.923,2.688,7.413,3.299c2.512,0.613,0.28,2.291-1.873,2.323c-2.144,0.039-2.623-0.716-2.846-0.907
			c-0.234-0.195,1.346,1.207,0.386,1.774c-0.956,0.574-3.778-0.342-4.309-0.828c0,0,0.815,2.545,7.226,4.374
			c0,0,5.621,2.454,2.524,3.605c-3.099,1.133-3.464,0.339-4.871-0.381c0,0-0.546,1.025-2.011,0.335c0,0,0.098,1.062-1.366,0.232
			c-1.466-0.834,2.26,2.649,5.802,2.817c0,0,6.309,1.195,6.309,2.498s-1.002,1.135-3.227,1.361
			c-2.243,0.234-4.393-0.761-4.393-0.761s0.99,1.45-1.229,1.597c-2.227,0.158,1.688-0.527,2.921,1.457
			c1.236,1.961,6.386,0.299,8.539,1.204c0,0,2.074,0.845-0.388,1.742c0,0,4.609,1.671-2.227,2.052c0,0,4.832,3.354-2.539,3.58
			c0,0-1.301,1.449-2.381,1.129c0,0,5.454,1.756,6.949,4.371c0,0,10.268,1.832,2.305,2.957l-3.229-1.012c0,0,3.919,2.05-3.225,1.012
			c0,0,6.115,5.72-2.192,3.199c0,0,0.828,5.934-3.321,3.195c0,0-0.255,2.272-1.645,1.586c-1.367-0.681-3.322-4.891-3.322-4.891
			s-0.938-0.391-0.616,0.877c1.24,4.924-1.673,4.213-2.993,2.178c0,0-1.029,3.08-3.328,2.709c-1.81-0.267-2.296-1.771-2.296-1.771
			L47.326,80.327z"/>
	</g>
	<polygon fill="#DEDDDD" points="47.068,71.898 43.743,100 52.531,100 50.508,72.143 	"/>
</g>
<g>
	<path fill="#DD0707" d="M19.018,42.223l-1.05,3.18h-1.35l3.435-10.109h1.575l3.45,10.109h-1.395l-1.08-3.18H19.018z M22.333,41.202
		l-0.99-2.909c-0.225-0.66-0.375-1.261-0.525-1.846h-0.03c-0.15,0.601-0.315,1.216-0.51,1.83l-0.99,2.925H22.333z"/>
	<path fill="#DD0707" d="M27.988,45.402l-3.3-10.109h1.41l1.575,4.979c0.435,1.365,0.81,2.595,1.08,3.78h0.03
		c0.285-1.17,0.705-2.445,1.155-3.766l1.71-4.994h1.395l-3.615,10.109H27.988z"/>
	<path fill="#DD0707" d="M34.918,42.223l-1.05,3.18h-1.35l3.435-10.109h1.575l3.45,10.109h-1.395l-1.08-3.18H34.918z M38.233,41.202
		l-0.99-2.909c-0.225-0.66-0.375-1.261-0.525-1.846h-0.03c-0.15,0.601-0.315,1.216-0.51,1.83l-0.99,2.925H38.233z"/>
	<path fill="#DD0707" d="M43.768,35.293v10.109h-1.305V35.293H43.768z"/>
	<path fill="#DD0707" d="M46.048,35.293h1.305v9.015h4.319v1.095h-5.624V35.293z"/>
	<path fill="#DD0707" d="M54.763,42.223l-1.05,3.18h-1.35l3.435-10.109h1.575l3.449,10.109h-1.395l-1.08-3.18H54.763z
		 M58.078,41.202l-0.99-2.909c-0.225-0.66-0.375-1.261-0.525-1.846h-0.029c-0.15,0.601-0.315,1.216-0.511,1.83l-0.989,2.925H58.078z
		"/>
	<path fill="#DD0707" d="M62.308,35.428c0.569-0.12,1.47-0.21,2.385-0.21c1.305,0,2.146,0.225,2.774,0.735
		c0.525,0.39,0.84,0.989,0.84,1.784c0,0.976-0.645,1.83-1.709,2.221v0.029c0.959,0.24,2.084,1.035,2.084,2.535
		c0,0.87-0.344,1.53-0.854,2.025c-0.705,0.645-1.845,0.944-3.495,0.944c-0.899,0-1.59-0.06-2.024-0.12V35.428z M63.612,39.567h1.185
		c1.381,0,2.19-0.72,2.19-1.694c0-1.186-0.899-1.65-2.22-1.65c-0.6,0-0.945,0.045-1.155,0.09V39.567z M63.612,44.412
		c0.255,0.045,0.63,0.061,1.095,0.061c1.35,0,2.596-0.495,2.596-1.965c0-1.38-1.186-1.95-2.61-1.95h-1.08V44.412z"/>
	<path fill="#DD0707" d="M70.438,35.293h1.305v9.015h4.32v1.095h-5.625V35.293z"/>
	<path fill="#DD0707" d="M82.752,40.662h-3.93v3.646h4.38v1.095h-5.685V35.293h5.459v1.095h-4.154v3.195h3.93V40.662z"/>
	<path fill="#DD0707" d="M13.708,53.293v10.109h-1.305V53.293H13.708z"/>
	<path fill="#DD0707" d="M15.988,63.402V53.293h1.425l3.24,5.114c0.75,1.186,1.335,2.25,1.815,3.285l0.03-0.015
		c-0.12-1.351-0.15-2.58-0.15-4.155v-4.229h1.23v10.109h-1.32l-3.21-5.13c-0.705-1.125-1.38-2.28-1.89-3.375l-0.045,0.016
		c0.075,1.274,0.105,2.489,0.105,4.169v4.32H15.988z"/>
	<path fill="#DD0707" d="M29.038,53.413c0.63-0.105,1.455-0.195,2.505-0.195c1.29,0,2.235,0.3,2.835,0.84
		c0.555,0.48,0.885,1.215,0.885,2.115c0,0.915-0.27,1.635-0.78,2.16c-0.69,0.734-1.815,1.109-3.09,1.109
		c-0.39,0-0.75-0.015-1.05-0.09v4.05h-1.305V53.413z M30.343,58.287c0.285,0.075,0.645,0.105,1.08,0.105
		c1.575,0,2.535-0.765,2.535-2.16c0-1.335-0.945-1.979-2.385-1.979c-0.57,0-1.005,0.045-1.23,0.104V58.287z"/>
	<path fill="#DD0707" d="M37.018,53.428c0.66-0.135,1.605-0.21,2.505-0.21c1.395,0,2.295,0.255,2.925,0.825
		c0.51,0.45,0.795,1.14,0.795,1.92c0,1.335-0.84,2.22-1.905,2.58v0.045c0.78,0.27,1.245,0.989,1.485,2.04
		c0.33,1.409,0.57,2.385,0.78,2.774h-1.35c-0.165-0.285-0.39-1.155-0.675-2.415c-0.3-1.395-0.84-1.92-2.025-1.965h-1.23v4.38h-1.305
		V53.428z M38.323,58.032h1.335c1.395,0,2.28-0.765,2.28-1.92c0-1.305-0.945-1.875-2.325-1.89c-0.63,0-1.08,0.061-1.29,0.12V58.032z
		"/>
	<path fill="#DD0707" d="M50.322,58.662h-3.93v3.646h4.38v1.095h-5.685V53.293h5.459v1.095h-4.154v3.195h3.93V58.662z"/>
	<path fill="#DD0707" d="M60.987,58.963c-0.075-1.41-0.165-3.105-0.149-4.365h-0.045c-0.346,1.185-0.766,2.445-1.275,3.84
		l-1.785,4.905h-0.99l-1.635-4.815c-0.48-1.425-0.885-2.729-1.17-3.93h-0.029c-0.031,1.26-0.105,2.955-0.195,4.47l-0.271,4.335
		h-1.245l0.705-10.109h1.665l1.726,4.89c0.42,1.245,0.765,2.354,1.02,3.405h0.045c0.255-1.021,0.615-2.131,1.064-3.405l1.801-4.89
		h1.664l0.631,10.109h-1.275L60.987,58.963z"/>
	<path fill="#DD0707" d="M65.832,53.293v10.109h-1.305V53.293H65.832z"/>
	<path fill="#DD0707" d="M69.417,53.293v5.984c0,2.265,1.005,3.225,2.354,3.225c1.5,0,2.461-0.989,2.461-3.225v-5.984h1.319v5.895
		c0,3.104-1.635,4.38-3.825,4.38c-2.069,0-3.629-1.185-3.629-4.32v-5.954H69.417z"/>
	<path fill="#DD0707" d="M86.337,58.963c-0.075-1.41-0.165-3.105-0.149-4.365h-0.045c-0.346,1.185-0.766,2.445-1.275,3.84
		l-1.785,4.905h-0.99l-1.635-4.815c-0.48-1.425-0.885-2.729-1.17-3.93h-0.029c-0.031,1.26-0.105,2.955-0.195,4.47l-0.271,4.335
		h-1.245l0.705-10.109h1.665l1.726,4.89c0.42,1.245,0.765,2.354,1.02,3.405h0.045c0.255-1.021,0.615-2.131,1.064-3.405l1.801-4.89
		h1.664l0.631,10.109h-1.275L86.337,58.963z"/>
</g>
</svg>
